<?xml version="1.0" standalone="no"?>
<!DOCTYPE svg PUBLIC "-//W3C//DTD SVG 1.1//EN" "http://www.w3.org/Graphics/SVG/1.1/DTD/svg11.dtd" >
<!--
2013-9-30: Created.
-->
<svg>
<metadata>
Created by iconfont
</metadata>
<defs>

<font id="iconfont" horiz-adv-x="1024" >
  <font-face
    font-family="iconfont"
    font-weight="500"
    font-stretch="normal"
    units-per-em="1024"
    ascent="896"
    descent="-128"
  />
    <missing-glyph />
    
    <glyph glyph-name="zhibiao" unicode="&#58986;" d="M953.6 832c32-32 44.8-70.4 51.2-115.2v-684.8c0-44.8-19.2-83.2-44.8-115.2-32-32-70.4-44.8-115.2-44.8H160C76.8-128 0-51.2 0 32v64c0 19.2 19.2 32 38.4 32s38.4-12.8 38.4-32v-64c0-44.8 38.4-76.8 76.8-76.8h684.8c44.8 0 76.8 38.4 76.8 76.8V716.8c0 44.8-38.4 76.8-76.8 76.8H160c-44.8 0-76.8-38.4-76.8-76.8v-326.4c-6.4-12.8-25.6-25.6-44.8-25.6s-32 12.8-38.4 32v320C0 806.4 70.4 876.8 153.6 876.8h684.8c44.8 0 89.6-12.8 115.2-44.8zM768 556.8c-6.4 6.4-19.2 6.4-25.6 6.4l-179.2-44.8c-12.8 0-19.2-6.4-19.2-19.2 0-6.4 0-19.2 6.4-25.6l44.8-44.8L416 256 249.6 422.4c-12.8 6.4-25.6 12.8-38.4 12.8-12.8 0-25.6-6.4-38.4-19.2l-19.2-12.8-70.4-70.4-64-70.4c-6.4-6.4-12.8-19.2-12.8-25.6s6.4-19.2 12.8-25.6c19.2-19.2 38.4-19.2 57.6 0l140.8 140.8 147.2-147.2 19.2-19.2c19.2-19.2 57.6-19.2 76.8 0l192 192 38.4-38.4c6.4-6.4 19.2-6.4 25.6-6.4 6.4 0 19.2 12.8 19.2 19.2l44.8 179.2c-6.4 6.4-6.4 19.2-12.8 25.6z"  horiz-adv-x="1024" />

    
    <glyph glyph-name="suanfa" unicode="&#58957;" d="M735.744 659.456c12.288-13.312 13.312-32.768 2.56-43.008l-406.016-375.296c-11.264-10.24-30.208-7.68-43.008 5.632-12.288 13.312-13.312 32.768-2.56 43.008l406.016 375.296c11.776 10.24 30.72 7.68 43.008-5.632zM958.976 868.864h-893.44c-36.352 0-65.536-29.696-65.536-65.536V102.4c0-36.352 29.696-65.536 65.536-65.536h351.744v-89.6h-239.616c-18.432 0-33.28-14.848-33.28-33.28s14.848-33.28 33.28-33.28h669.184c18.432 0 33.28 14.848 33.28 33.28 0 17.92-14.848 32.768-33.28 33.28H609.792v89.6h349.696c36.352 0 65.536 29.696 65.536 65.536V803.84c-0.512 35.84-30.208 65.024-66.048 65.024z m0-742.4h-0.512c0-12.288-10.24-22.528-22.528-22.528h-845.824c-12.288 0-22.528 10.24-22.528 23.04V779.776c0 12.288 10.24 22.528 22.528 22.528h846.336c12.288 0 22.528-10.24 22.528-22.528v-653.312zM348.672 433.152c-66.048 0-119.808 53.76-119.808 119.808s53.76 119.808 119.808 119.808 119.808-53.76 119.808-119.808-53.76-119.808-119.808-119.808z m0 173.568c-29.696 0-53.248-24.064-53.248-53.248 0-29.696 24.064-53.248 53.248-53.248s53.248 24.064 53.248 53.248-23.552 53.248-53.248 53.248zM676.352 232.96c-66.048 0-119.808 53.76-119.808 119.808 0 66.048 53.76 119.808 119.808 119.808 66.048 0 119.808-53.76 119.808-119.808 0.512-66.048-53.76-119.808-119.808-119.808z m0 173.568c-29.696 0-53.248-24.064-53.248-53.248s24.064-53.248 53.248-53.248 53.248 24.064 53.248 53.248-23.552 53.248-53.248 53.248z"  horiz-adv-x="1025" />

    
    <glyph glyph-name="xiazai45" unicode="&#58959;" d="M805.695-77.009c-1.963 0-3.541 0.054-4.672 0.111L203.268-76.898c-40.042 0-63.091 16.865-75.375 31.013-26.919 31.003-24.757 73.037-23.543 84.7l0 359.53 64 0 0-363.913-0.302-1.883c-0.761-6.401-0.833-26.277 8.289-36.609 1.93-2.186 7.803-8.838 26.932-8.838l600.308 0 0.75-0.082c2.153-0.076 22.315-0.434 34.996 11.557 8.454 7.994 12.74 21.212 12.74 39.288L852.063 398.621l64 0 0-360.756c0-45.871-18.247-72.371-33.555-86.525C854.974-74.12 820.092-77.008 805.695-77.009zM136.349 368.312 38 368.312c-13.291 0-25.197 8.214-29.916 20.639-4.718 12.425-1.266 26.472 8.674 35.294l472.219 419.09c12.02 10.668 30.087 10.766 42.223 0.227l478.781-415.791c9.955-8.646 13.588-22.513 9.151-34.929s-16.035-20.84-29.216-21.219l-104.938-3.012c-0.313-0.01-0.624-0.014-0.936-0.014-17.247 0-31.471 13.729-31.97 31.082-0.507 17.666 13.403 32.398 31.069 32.905l22.931 0.658L510.448 776.821 122.266 432.312l14.083 0c17.673 0 32-14.327 32-32S154.022 368.312 136.349 368.312zM403-45.201c-14.912 0-27 12.088-27 27L376 207.645c0.002 4.866 1.234 24.9 20.021 43.995 22.8 23.173 61.458 34.923 114.901 34.923 52.638 0 90.876-11.911 113.652-35.403 19.225-19.828 20.464-40.706 20.426-46.244l0-222.25c0-14.912-12.088-27-27-27s-27 12.088-27 27L591 204.598c-0.179 1.167-1.308 6.104-8.017 11.541-7.569 6.134-26.997 16.424-72.062 16.424-52.272 0-70.848-13.145-76.408-18.795-2.73-2.775-3.876-5.136-4.357-6.627-0.073-0.225-0.123-0.411-0.157-0.549l0-224.793C430-33.113 417.912-45.201 403-45.201z"  horiz-adv-x="1024" />

    
    <glyph glyph-name="u502" unicode="&#58966;" d="M762.103364 645.504675c0-137.883267-113.188418-249.963299-252.446085-249.963299S257.211194 507.577073 257.211194 645.504675v0.354684C258.496922 781.791866 370.709961 891.743796 507.706519 891.743796h3.90152c137.129564 0 249.209597-109.774588 250.495325-245.884437v-0.354684zM507.706519 817.969598c-96.207939 0-175.036379-77.232364-176.10043-172.642265C331.783431 548.321356 411.49858 469.182568 509.657279 469.182568s177.873848 78.917111 178.05119 176.144765c-1.064051 96.119268-80.601858 173.484638-177.696507 172.59793h-2.305443z m321.07737-926.123334c-61.892296-13.078959-143.380864-13.078959-229.746331-13.07896H420.277c-91.9074 0-171.445207 0-232.229117 13.300637-36.665422 7.980382-64.19774 20.349974-84.015688 37.862479-24.694849 21.591367-37.020106 50.276407-37.020106 84.991069v17.512505a343.998801 343.998801 0 0 0 104.764682 244.820386 350.693455 350.693455 0 0 0 246.505134 100.020788h182.706413c92.971451 0 180.400969-35.557035 246.726811-100.19813a344.708168 344.708168 0 0 0 104.764681-244.820386v-17.512505c0-34.359978-13.211966-63.931727-38.43884-85.345752-20.39431-17.335163-48.281311-29.571749-85.257081-37.552131zM418.32624 303.811318c-151.449917-0.177342-275.500522-121.789497-276.919256-271.90935v-16.980479c0-14.010004 0-37.197447 62.512992-50.808432 52.936534-11.527218 132.341335-11.527218 216.357024-11.527219h215.913669c68.143595 0.177342 130.878265 1.773418 176.455114 11.527219 65.084449 13.965669 65.084449 37.862479 65.084449 50.808432v17.157821c-1.418735 150.119853-125.46934 271.776343-276.919256 271.776344H418.32624z"  horiz-adv-x="1024" />

    
    <glyph glyph-name="u51" unicode="&#58979;" d="M454.434118 711.172899L509.123804 724.760399l54.689687-13.5875c113.880232-28.024218 197.231051-132.987654 197.231051-249.670308v-287.715308l20.636016-20.805859 27.769452-22.249531H208.797599l27.769452 22.249531 20.636015 20.805859V461.502591c0 116.682654 82.459139 222.53777 197.231052 249.670308z m72.608202 179.185153C520.758101 892.098951 514.516343 892.098951 509.123804 892.098951c-41.22957 0-71.758983-34.393359-71.758983-76.896757v-34.393359c-142.498904-33.459218-251.878277-163.729372-251.878277-319.348705v-258.756949L87.741468 101.433847v-50.698359h842.764673V101.433847l-97.745076 101.311795V461.502591c0 155.619333-109.379373 285.889487-251.920738 320.240385V814.352975c0 36.219179-19.701875 68.786718-53.798007 76.005077zM509.123804-121.188845c55.623827 0 98.636756 43.437538 98.636757 99.528436H410.487048c0-56.090897 43.05539-99.528436 98.636756-99.528436z"  horiz-adv-x="1024" />

    
    <glyph glyph-name="u50" unicode="&#58958;" d="M1023.952003 128h-189.620148l-279.662521 279.662521V647.327542a127.992 127.992 0 1 1-85.370665 0v-245.616649l-14.655084-14.71908L195.651772 128H0.016v-255.984001h255.984v195.635773l258.991814 258.991813L767.968002 73.731392V-127.984001h255.984001v255.984001z"  horiz-adv-x="1024" />

    
    <glyph glyph-name="u80" unicode="&#58976;" d="M508.413673-98.950708c-73.47262 0-178.83365 54.565809-268.573668 138.973138-99.112625 93.402876-156.048519 199.841217-156.048519 292.274514V749.647281l29.679922 0.430924c1.077311 0 100.836323 1.993026 203.881134 42.823118C421.52853 834.054609 490.045518 882.264283 490.691905 882.749073l17.721768 12.496809 17.937231-12.60454c0.754118-0.538656 67.762871-47.940346 173.123901-89.740019 103.529601-40.937823 203.342479-42.769252 204.312058-42.769252l29.195132-0.430924 0.161597-417.404203c0-92.325565-56.882028-198.871637-156.102385-292.274514-89.686153-84.407328-195.101048-138.973138-268.573668-138.973138z m-364.292763 431.247652c0-173.716422 258.554675-372.588059 364.292763-372.58806 105.684223 0 364.346629 198.925503 364.346629 372.58806V693.088446l-12.658405 1.346639c-44.708413 4.740169-112.740611 16.159667-183.358357 44.169757a1026.192731 1026.192731 0 0 0-160.734823 80.151949l-7.595044 4.740169-7.541178-4.740169a1032.710463 1032.710463 0 0 0-160.680957-80.205815 711.564011 711.564011 0 0 0-183.466088-44.115891l-12.60454-1.346639v-360.791502z m339.35301-142.528265l-164.828605 136.872381 38.890933 44.600681 119.41994-99.004894 226.773996 254.568624 45.516396-38.513874-265.77266-298.522918z"  horiz-adv-x="1024" />

    
    <glyph glyph-name="xianzhuangyizhangtu" unicode="&#58967;" d="M0-128l283.249778 128V384L0 254.008889zM283.249778 896L0 768.568889v-446.008889l283.249778 127.431111zM348.615111 449.991111l283.192889-127.431111V768.568889L348.615111 896zM675.384889 768v-448L884.622222 384v-64l-209.180444-64V-128L1024 0V896l-348.615111-128zM887.466667 448.056889s-72.590222 92.615111-72.590223 127.943111c0 35.328 31.288889 64 69.745778 64 38.456889 0 69.688889-28.672 69.688889-64S887.466667 448.056889 887.466667 448.056889zM348.615111 0L631.808-128v384L348.615111 384z"  horiz-adv-x="1024" />

    
    <glyph glyph-name="shousuo" unicode="&#58968;" d="M833.679373 606.838739c15.95436701 0 29.007661 13.05329399 29.007661 29.007661l1e-8 71.167876c0 15.95436701-13.05329399 29.007661-29.007661 29.007661l-643.97375401 0c-15.95436701 0-29.007661-13.05329399-29.007661-29.007661l0-71.167876c0-15.95436701 13.05329399-29.007661 29.007661-29.007661L833.679373 606.838739zM189.70459601 503.327224c-15.95436701 0-21.211091-10.468422-11.68206402-23.263843l316.65187001-425.215448c9.529027-12.795421 25.122167-12.795421 34.650171 0l316.650847 425.215448c9.529027 12.795421 4.272303 23.263843-11.682064 23.263843L189.70459601 503.327224z"  horiz-adv-x="1024" />

    
    <glyph glyph-name="guanli" unicode="&#58969;" d="M900.127528-126.694116h-402.958645c-61.376571 0-102.045546 31.714338-102.045545 107.455639V793.02168c0 53.541264 48.504281 102.045546 102.045545 102.045545h683.164147c50.369831 0 102.045546-48.504281 102.045545-102.045545V307.419202c0-12.49918-17.909273-25.184915-30.595008-25.184915-12.685735 0-30.595008 12.49918-30.595008 25.184915V793.02168c0 18.842048-18.842048 37.87065-37.87065 37.87065H497.168883c-18.842048 0-37.684095-18.842048-37.684095-37.87065v-818.603025c0-21.640372 19.588267-37.87065 37.684095-37.87065h396.615777c12.685735 0 25.184915-19.401713 25.184916-31.900893 0-15.484059-6.342868-31.341228-18.842048-31.341228z m0 0M879.979596 168.995445H591.565677c-12.49918 0-25.184915 17.909273-25.184915 30.595009 0 12.685735 12.685735 30.595008 25.184915 30.595008h288.413919c12.685735 0 25.74458-13.431955 25.184915-33.206777-0.186555-15.857169-12.685735-27.983239-25.184915-27.98324z m0 0M1082.764802 390.063035H591.565677c-12.49918 0-25.184915 17.909273-25.184915 30.595008 0 12.685735 12.685735 30.595008 25.184915 30.595009h494.370559c12.685735 0 25.184915-17.909273 25.184915-30.595009-0.186555-12.685735-15.857169-30.595008-28.356349-30.595008z m0 0M1082.764802 610.94407H591.565677c-12.49918 0-25.184915 17.909273-25.184915 30.595008 0 12.49918 12.685735 30.595008 25.184915 30.595008h494.370559c12.49918 0 25.184915-17.909273 25.184915-30.595008-0.186555-12.685735-12.685735-30.595008-28.356349-30.595008z m0 0M1093.958098 117.69284c-29.475679 0-52.421935-23.879031-52.421935-53.354709s23.879031-53.354709 52.421935-53.35471c29.475679 0 52.421935 23.879031 52.421935 53.35471 0 29.289124-23.879031 53.354709-52.421935 53.354709z m0-92.158134c-21.267262 0-38.61687 17.536163-38.61687 38.61687 0 21.267262 17.536163 38.61687 38.61687 38.61687 21.267262 0 38.61687-17.536163 38.61687-38.61687 0-21.080707-17.536163-38.61687-38.61687-38.61687zM1259.432319 105.007105c-18.282383 3.731099-32.833667 14.551284-42.721078 31.714338-9.700856 15.857169-12.12607 35.258881-6.156313 53.541264 1.305884 2.425214 0 6.156313-2.425214 8.581527-16.976498 15.857169-36.564766 26.86391-57.272363 34.139552-2.425214 1.305884-6.156313 0-8.581527-2.425214-12.12607-14.551284-30.408453-22.013482-48.690836-22.013482s-35.258881 8.581527-48.690836 22.013482c-2.425214 2.425214-4.850428 3.731099-8.581527 2.425214-20.707597-8.581527-40.295864-19.588267-57.272363-34.139552-2.425214-1.305884-3.731099-4.850428-2.425214-8.581527 4.850428-18.282383 3.731099-36.564766-6.156312-53.541264-8.581527-15.857169-24.438696-26.86391-42.721079-31.714338-2.425214-1.305884-4.850428-3.731099-6.156312-7.275642-2.425214-12.12607-3.731099-23.132811-3.731099-34.139552s1.305884-23.132811 3.731099-34.139552c0-3.731099 2.425214-6.156313 6.156312-7.275642 18.282383-3.731099 32.833667-14.551284 42.721079-31.714338 9.700856-15.857169 12.12607-35.258881 6.156312-53.541264-1.305884-2.425214 0-6.156313 2.425214-8.581527 16.976498-15.857169 36.564766-26.86391 57.272363-34.139552h2.425214c2.425214 0 4.850428 1.305884 6.156313 2.425215 12.12607 14.551284 30.408453 22.013482 48.690836 22.013481s35.258881-8.581527 48.690836-22.013481c2.425214-2.425214 4.850428-3.731099 8.581527-2.425215 20.707597 8.581527 40.295864 19.588267 57.272363 34.139552 2.425214 1.305884 3.731099 4.850428 2.425214 8.581527-4.850428 18.282383-3.731099 36.564766 6.156313 53.541264 8.581527 15.857169 24.438696 26.86391 42.721078 31.714338 2.425214 1.305884 4.850428 3.731099 6.156313 7.275642 2.425214 12.12607 3.731099 23.132811 3.731098 34.139552s-1.305884 23.132811-3.731098 34.139552c0 3.731099-2.425214 6.156313-6.156313 7.275642z m-8.581527-65.853889c-20.707597-6.156313-37.87065-20.707597-48.690836-38.98998-9.700856-19.588267-13.431955-41.415194-8.581526-62.122791-12.12607-11.006741-26.86391-19.588267-42.721079-25.558026-15.857169 14.551284-35.258881 23.132811-57.272363 23.132811-20.707597 0-41.415194-8.581527-57.272363-23.132811-14.551284 6.156313-29.289124 14.551284-42.721078 25.558026 4.850428 20.707597 1.305884 42.721079-8.581527 62.122791-11.006741 18.282383-27.983239 32.833667-48.690836 38.98998-1.305884 8.581527-2.425214 16.976498-2.425214 25.558025s1.305884 16.976498 2.425214 25.558025c20.707597 6.156313 37.87065 20.707597 48.690836 38.98998 9.700856 19.588267 13.431955 41.415194 8.581527 62.122791 12.12607 11.006741 26.86391 19.588267 42.721078 25.558025 15.857169-14.551284 36.564766-23.132811 57.272363-23.132811 22.013482 0 41.415194 8.581527 57.272363 23.132811 14.551284-6.156313 29.289124-14.551284 42.721079-25.558025-4.850428-20.707597-2.425214-43.840408 8.581526-62.122791 11.006741-18.282383 27.983239-32.833667 48.690836-38.98998 1.305884-8.581527 2.425214-16.976498 2.425215-25.558025 0-8.394972-1.11933-16.976498-2.425215-25.558025zM1093.958098 113.961742c-27.423574 0-48.877391-22.200036-48.877391-49.810166 0-27.423574 22.200036-49.810166 48.877391-49.810166 27.423574 0 48.877391 22.200036 48.877391 49.810166 0 27.423574-22.386591 49.810166-48.877391 49.810166z m0-85.815267c-19.774822 0-36.005101 16.230279-36.005101 36.005101 0 19.774822 16.230279 36.005101 36.005101 36.005101 19.774822 0 36.005101-16.230279 36.005101-36.005101 0-19.774822-16.416834-36.005101-36.005101-36.005101zM1248.052469 102.208781c-16.976498 3.357989-30.595008 13.61851-39.7362 29.475679-9.141191 14.737839-11.379851 32.833667-5.596648 49.996721 1.11933 2.238659 0 5.596648-2.238659 8.021861-15.857169 14.737839-34.139552 24.99836-53.354709 31.714338-2.238659 1.11933-5.596648 0-8.021862-2.238659-11.379851-13.61851-28.356349-20.334487-45.332848-20.334487-16.976498 0-32.833667 8.021862-45.332847 20.334487-2.238659 2.238659-4.477318 3.357989-8.021862 2.238659-19.215158-8.021862-37.497541-18.095828-53.35471-31.714338-2.238659-1.11933-3.357989-4.477318-2.238659-8.021861 4.477318-16.976498 3.357989-34.139552-5.596648-49.996721-8.021862-14.737839-22.759701-24.99836-39.736199-29.475679-2.238659-1.11933-4.477318-3.357989-5.596648-6.715977-2.238659-11.379851-3.357989-21.640372-3.357989-31.714338 0-10.260521 1.11933-21.640372 3.357989-31.714338 0-3.357989 2.238659-5.596648 5.596648-6.715977 16.976498-3.357989 30.595008-13.61851 39.736199-29.475679 9.141191-14.737839 11.379851-32.833667 5.596648-49.99672-1.11933-2.238659 0-5.596648 2.238659-8.021862 15.857169-14.737839 34.139552-24.99836 53.35471-31.714338h2.238659c2.238659 0 4.477318 1.11933 5.596648 2.238659 11.379851 13.61851 28.356349 20.334487 45.332847 20.334487 16.976498 0 32.833667-8.021862 45.332848-20.334487 2.238659-2.238659 4.477318-3.357989 8.021862-2.238659 19.215158 8.021862 37.497541 18.095828 53.354709 31.714338 2.238659 1.11933 3.357989 4.477318 2.238659 8.021862-4.477318 16.976498-3.357989 33.952997 5.596648 49.99672 8.021862 14.737839 22.759701 24.99836 39.7362 29.475679 2.238659 1.11933 4.477318 3.357989 5.596647 6.715977 2.238659 11.379851 3.357989 21.640372 3.357989 31.714338 0 10.260521-1.11933 21.640372-3.357989 31.714338 0.186555 3.357989-2.052104 5.596648-5.410092 6.715977z m-8.021862-61.376571c-19.215158-5.596648-35.258881-19.215158-45.332848-36.378211-9.141191-18.095828-12.49918-38.61687-8.021862-57.832028-11.379851-10.260521-24.99836-18.095828-39.736199-23.879031-14.737839 13.61851-32.833667 21.640372-53.35471 21.640372-19.215158 0-38.61687-8.021862-53.354709-21.640372-13.61851 5.596648-27.237019 13.61851-39.7362 23.879031 4.477318 19.215158 1.11933 39.7362-8.021862 57.832028-10.260521 16.976498-26.11769 30.595008-45.332847 36.378211-1.11933 8.021862-2.238659 15.857169-2.238659 23.879031 0 8.021862 1.11933 15.857169 2.238659 23.87903 19.215158 5.596648 35.258881 19.215158 45.332847 36.378211 9.141191 18.095828 12.49918 38.61687 8.021862 57.832028 11.379851 10.260521 24.99836 18.095828 39.7362 23.879031 14.737839-13.61851 34.139552-21.640372 53.354709-21.640372 20.334487 0 38.61687 8.021862 53.35471 21.640372 13.61851-5.596648 27.237019-13.61851 39.736199-23.879031-4.477318-19.215158-2.238659-40.855529 8.021862-57.832028 10.260521-16.976498 26.11769-30.595008 45.332848-36.378211 1.11933-8.021862 2.238659-15.857169 2.238659-23.87903 0-7.835307-1.11933-15.857169-2.238659-23.879031zM1093.958098 111.349973c-25.931135 0-46.265622-21.080707-46.265622-47.198397 0-25.931135 21.080707-47.198397 46.265622-47.198397 25.931135 0 46.265622 21.080707 46.265622 47.198397 0 25.931135-21.080707 47.198397-46.265622 47.198397z m0-81.337949c-18.655493 0-34.139552 15.484059-34.139552 34.139552s15.484059 34.139552 34.139552 34.139552 34.139552-15.484059 34.139552-34.139552-15.484059-34.139552-34.139552-34.139552zM1240.030607 100.156677c-16.230279 3.171434-29.102569 12.87229-37.684096 27.983239-8.581527 13.99162-10.820186 31.154673-5.410093 47.384952 1.11933 2.238659 0 5.410093-2.238659 7.462197-15.110949 13.99162-32.274003 23.692476-50.556385 30.221898-2.238659 1.11933-5.410093 0-7.462197-2.238659-10.820186-12.87229-26.86391-19.401713-43.094189-19.401712-16.230279 0-31.154673 7.462197-43.094188 19.401712-2.238659 2.238659-4.290763 3.171434-7.462197 2.238659-18.282383-7.462197-35.445436-17.163053-50.556386-30.221898-2.238659-1.11933-3.171434-4.290763-2.238659-7.462197 4.290763-16.230279 3.171434-32.274003-5.410093-47.384952-7.462197-13.99162-21.453817-23.692476-37.684095-27.983239-2.238659-1.11933-4.290763-3.171434-5.410093-6.529422-2.238659-10.820186-3.171434-20.521042-3.171434-30.221899 0-9.700856 1.11933-20.521042 3.171434-30.221898 0-3.171434 2.238659-5.410093 5.410093-6.529423 16.230279-3.171434 29.102569-12.87229 37.684095-27.983239 8.581527-13.99162 10.820186-31.154673 5.410093-47.384952-1.11933-2.238659 0-5.410093 2.238659-7.462197 15.110949-13.99162 32.274003-23.692476 50.556386-30.221898h2.238659c2.238659 0 4.290763 1.11933 5.410093 2.238659 10.820186 12.87229 26.86391 19.401713 43.094188 19.401713 16.230279 0 31.154673-7.462197 43.094188-19.401713 2.238659-2.238659 4.290763-3.171434 7.462198-2.238659 18.282383 7.462197 35.445436 17.163053 50.556385 30.221898 2.238659 1.11933 3.171434 4.290763 2.238659 7.462197-4.290763 16.230279-3.171434 32.274003 5.410093 47.384952 7.462197 13.99162 21.453817 23.692476 37.684096 27.983239 2.238659 1.11933 4.290763 3.171434 5.410093 6.529423 2.238659 10.820186 3.171434 20.521042 3.171433 30.221898 0 9.700856-1.11933 20.521042-3.171433 30.221899-0.186555 3.357989-2.425214 5.410093-5.596648 6.529422z m-7.462197-58.018583c-18.282383-5.410093-33.393332-18.282383-43.094189-34.512661-8.581527-17.163053-11.75296-36.564766-7.462197-54.847149-10.820186-9.700856-23.692476-17.163053-37.684095-22.573146-13.99162 12.87229-31.154673 20.521042-50.556386 20.521042-18.282383 0-36.564766-7.462197-50.556385-20.521042-12.87229 5.410093-25.74458 12.87229-37.684096 22.573146 4.290763 18.282383 1.11933 37.684095-7.462197 54.847149-9.700856 16.230279-24.811805 29.102569-43.094188 34.512661-1.11933 7.462197-2.238659 15.110949-2.23866 22.573147s1.11933 15.110949 2.23866 22.573146c18.282383 5.410093 33.393332 18.282383 43.094188 34.512662 8.581527 17.163053 11.75296 36.564766 7.462197 54.847148 10.820186 9.700856 23.692476 17.163053 37.684096 22.573147 13.99162-12.87229 32.274003-20.521042 50.556385-20.521042 19.401713 0 36.564766 7.462197 50.556386 20.521042 12.87229-5.410093 25.74458-12.87229 37.684095-22.573147-4.290763-18.282383-2.238659-38.803425 7.462197-54.847148 9.700856-16.230279 24.811805-29.102569 43.094189-34.512662 1.11933-7.462197 2.238659-15.110949 2.238659-22.573146-0.186555-7.648752-1.11933-15.110949-2.238659-22.573147zM1092.279104 108.924759c-25.74458 0-45.892512-20.147932-45.892513-44.773183s20.894152-44.773183 45.892513-44.773183c25.74458 0 45.892512 20.147932 45.892512 44.773183 0.186555 24.625251-20.894152 44.773183-45.892512 44.773183z m0-77.233741c-18.468938 0-33.766442 14.737839-33.766442 32.460558 0 17.722718 15.297504 32.460557 33.766442 32.460557 18.468938 0 33.766442-14.737839 33.766442-32.460557 0.186555-17.722718-15.110949-32.460557-33.766442-32.460558zM1237.232283 98.291128c-16.043724 2.984879-28.729459 12.312625-37.310986 26.490799-8.581527 13.2454-10.633631 29.662234-5.410093 44.959738 1.11933 2.052104 0 5.036983-2.052104 7.089087-14.924394 13.2454-32.087448 22.573146-50.183276 28.542904-2.052104 0.932775-5.410093 0-7.462197-2.052104-10.633631-12.312625-26.677355-18.468938-42.721078-18.468938-16.043724 0-30.968118 7.089087-42.721079 18.468938-2.052104 2.052104-4.290763 2.984879-7.462197 2.052104-18.095828-7.089087-35.258881-16.416834-50.183276-28.542904-2.052104-0.932775-3.171434-4.104208-2.052104-7.089087 4.290763-15.297504 3.171434-30.595008-5.410093-44.959738-7.462197-13.2454-21.267262-22.573146-37.310985-26.490799-2.052104-0.932775-4.290763-2.984879-5.410093-6.156313-2.052104-10.260521-3.171434-19.401713-3.171434-28.542904s1.11933-19.401713 3.171434-28.542904c0-2.984879 2.052104-5.036983 5.410093-6.156313 16.043724-2.984879 28.729459-12.312625 37.310985-26.490799 8.581527-13.2454 10.633631-29.662234 5.410093-44.959738-1.11933-2.052104 0-5.036983 2.052104-7.089087 14.924394-13.2454 32.087448-22.573146 50.183276-28.542904h2.052104c2.052104 0 4.290763 0.932775 5.410093 2.052104 10.633631 12.312625 26.677355 18.468938 42.721079 18.468938 16.043724 0 30.968118-7.089087 42.721078-18.468938 2.052104-2.052104 4.290763-2.984879 7.462197-2.052104 18.095828 7.089087 35.258881 16.416834 50.183276 28.542904 2.052104 0.932775 3.171434 4.104208 2.052104 7.089087-4.290763 15.297504-3.171434 30.595008 5.410093 44.959738 7.462197 13.2454 21.267262 22.573146 37.310986 26.490799 2.052104 0.932775 4.290763 2.984879 5.410093 6.156313 2.052104 10.260521 3.171434 19.401713 3.171433 28.542904s-1.11933 19.401713-3.171433 28.542904c-0.186555 3.171434-2.238659 5.223538-5.410093 6.156313z m-7.462197-55.220259c-18.095828-5.036983-33.020222-17.349608-42.721079-32.647112-8.581527-16.416834-11.75296-34.699217-7.462197-52.048825-10.633631-9.141191-23.505921-16.416834-37.310986-21.453817-13.805065 12.312625-30.968118 19.401713-50.183275 19.401712-18.095828 0-36.191656-7.089087-50.183276-19.401712-12.87229 5.036983-25.558025 12.312625-37.310986 21.453817 4.290763 17.349608 1.11933 35.818546-7.462197 52.048825-9.514301 15.297504-24.438696 27.610129-42.721078 32.647112-1.11933 7.089087-2.052104 14.364729-2.052104 21.453817s1.11933 14.364729 2.052104 21.453816c18.095828 5.036983 33.020222 17.349608 42.721078 32.647113 8.581527 16.416834 11.75296 34.699217 7.462197 52.048825 10.633631 9.141191 23.505921 16.416834 37.310986 21.453817 13.805065-12.312625 32.087448-19.401713 50.183276-19.401713 19.215158 0 36.191656 7.089087 50.183275 19.401713 12.87229-5.036983 25.558025-12.312625 37.310986-21.453817-4.290763-17.349608-2.052104-36.751321 7.462197-52.048825s24.438696-27.610129 42.721079-32.647113c1.11933-7.089087 2.052104-14.364729 2.052104-21.453816s-0.932775-14.178175-2.052104-21.453817zM1094.144653 106.499545c-24.438696 0-43.467298-19.028603-43.467298-42.347969s19.774822-42.347969 43.467298-42.347969c24.438696 0 43.467298 19.028603 43.467298 42.347969s-19.774822 42.347969-43.467298 42.347969z m0-73.129532c-17.536163 0-32.087448 13.805065-32.087448 30.781563 0 16.789944 14.551284 30.781563 32.087448 30.781563 17.536163 0 32.087448-13.805065 32.087448-30.781563s-14.551284-30.781563-32.087448-30.781563zM1094.144653 99.597012c-20.521042 0-36.564766-15.857169-36.564766-35.631991 0-19.588267 16.603389-35.631991 36.564766-35.631991 20.521042 0 36.564766 16.043724 36.564766 35.631991 0 19.774822-16.603389 35.631991-36.564766 35.631991z m0-61.376571c-14.737839 0-26.86391 11.566406-26.86391 25.74458 0 14.178175 12.12607 25.74458 26.86391 25.74458s26.86391-11.566406 26.86391-25.74458c0-13.99162-12.12607-25.74458-26.86391-25.74458zM1227.717981 96.425578c-15.110949 2.984879-27.237019 11.566406-35.445436 25.184916-8.021862 12.49918-10.073966 27.983239-5.036983 42.534523 0.932775 1.865549 0 4.850428-2.052104 6.715978-14.178175 12.49918-30.221898 21.267262-47.384952 27.050464-2.052104 0.932775-5.036983 0-7.089087-1.865549-10.073966-11.566406-25.184915-17.349608-40.48242-17.349608-15.110949 0-29.289124 6.715977-40.482419 17.349608-2.052104 1.865549-4.104208 2.984879-7.089087 1.865549-17.163053-6.715977-33.393332-15.484059-47.384952-27.050464-2.052104-0.932775-2.984879-3.917653-2.052104-6.715978 4.104208-14.551284 2.984879-29.102569-5.036983-42.534523-7.089087-12.49918-20.147932-21.267262-35.258882-25.184916-2.052104-0.932775-4.104208-2.984879-5.036983-5.783202-2.052104-9.700856-2.984879-18.468938-2.984878-27.050465 0-8.768082 0.932775-18.468938 2.984878-27.050464 0-2.984879 2.052104-4.850428 5.036983-5.783203 15.110949-2.984879 27.237019-11.566406 35.258882-25.184916 8.021862-12.49918 10.073966-27.983239 5.036983-42.534523-0.932775-1.865549 0-4.850428 2.052104-6.715978 14.178175-12.49918 30.221898-21.267262 47.384952-27.050464h2.052104c2.052104 0 4.104208 0.932775 5.036983 1.865549 10.073966 11.566406 25.184915 17.349608 40.482419 17.349608 15.110949 0 29.289124-6.715977 40.48242-17.349608 2.052104-1.865549 4.104208-2.984879 7.089087-1.865549 17.163053 6.715977 33.393332 15.484059 47.384952 27.050464 2.052104 0.932775 2.984879 3.917653 2.052104 6.715978-4.104208 14.551284-2.984879 29.102569 5.036983 42.534523 7.089087 12.49918 20.147932 21.267262 35.445436 25.184916 2.052104 0.932775 4.104208 2.984879 5.036983 5.783203 2.052104 9.700856 2.984879 18.468938 2.984879 27.050464 0 8.768082-0.932775 18.468938-2.984879 27.050465 0 2.984879-2.052104 4.850428-5.036983 5.783202z m-7.089087-52.235379c-17.163053-4.850428-31.341228-16.416834-40.482419-30.968118-8.021862-15.484059-11.193296-32.833667-7.089087-49.437056-10.073966-8.768082-22.200036-15.484059-35.258882-20.334488-13.058845 11.566406-29.289124 18.468938-47.384952 18.468938-17.163053 0-34.326107-6.715977-47.384951-18.468938-12.12607 4.850428-24.252141 11.566406-35.445437 20.334488 4.104208 16.416834 0.932775 33.952997-7.089087 49.437056-9.141191 14.551284-23.319366 26.11769-40.482419 30.968118-0.932775 6.715977-2.052104 13.61851-2.052105 20.334487 0 6.715977 0.932775 13.61851 2.052105 20.334487 17.163053 4.850428 31.341228 16.416834 40.482419 30.968118 8.021862 15.484059 11.193296 32.833667 7.089087 49.437056 10.073966 8.768082 22.200036 15.484059 35.445437 20.334487 13.058845-11.566406 30.221898-18.468938 47.384951-18.468938 18.095828 0 34.326107 6.715977 47.384952 18.468938 12.12607-4.850428 24.252141-11.566406 35.258882-20.334487-4.104208-16.416834-2.052104-34.885772 7.089087-49.437056 9.141191-14.551284 23.319366-26.11769 40.482419-30.968118 0.932775-6.715977 2.052104-13.61851 2.052104-20.334487 0-6.715977-1.11933-13.431955-2.052104-20.334487z"  horiz-adv-x="2348" />

    
    <glyph glyph-name="guotukongjiankaifashiyixingpingjia" unicode="&#58970;" d="M922.9 250.3c-0.6 3.6-3.4 6.7-7.3 8.1l-31.3 10.8c7.5 30.7 11.4 61.9 11.4 92.7 0 98-36.2 191.9-101.9 264.5-65.3 72-154.3 117.2-250.5 127.3l-3.4 0.3v-47.9l2.8-0.3c174.4-20.4 305.8-168.3 305.8-344-0.2-26-3.1-51.9-9-77.3L806 296c-3.7 1.2-7.6 0.6-10.3-1.9-2.5-2.2-3.4-5.4-2.6-8.7 1.7-6.7 25.7-96.2 27.1-101.2 0.9-3.3 3.6-6.1 7-7.2 1.2-0.5 2.3-0.6 3.6-0.6 2.2 0 4.4 0.8 6.2 2l82.6 63.3c2.5 2.2 3.9 5.3 3.3 8.6z m-738.3-28.1c-19.6 44.3-29.5 91.2-29.5 139.5 0 154.6 103.7 291.2 252.5 333.1l5.8-28.7c0.8-3.9 3.3-7 6.9-8.1 3.1-0.9 6.4-0.2 8.9 2.2 4.4 4.2 69.4 68.9 74 73.7 2.3 2.5 3.3 6.1 2.6 9.5-0.6 3.4-3 6.2-6.2 7.8l-9.4 3.9c-24.9 10.4-83.5 34.9-87.1 36.3-3.3 1.4-6.5 0.9-9-1.1-2.8-2.3-4-6.2-3.3-10.3l7.6-38.3c-171.1-46.6-290.5-202.3-290.5-379.9 0-56.1 11.8-110.7 35.2-162.3l1.4-3.1 41.3 23.2-1.2 2.6z m602.1-57.3c-64.8-93.7-171.5-149.6-285.1-149.6h-0.3c-88.4 0-172.1 33.2-236.3 93.7l28.2 24.2c3.1 2.6 4.5 6.4 3.7 10-0.8 3.3-3.1 5.9-6.5 6.9-7.2 2-102.1 27.3-106.6 28.4-3.6 0.9-7.3-0.2-10.1-2.6-2.7-2.5-4.1-5.9-3.6-9.4l14.5-106.8c0.5-3.6 2.6-6.2 5.8-7.5 3.6-1.4 7.8-0.5 11.1 2.3l27.3 23.4c36.2-34.8 77.9-62 124.4-81 47.2-19.3 97.1-29 148.1-29h0.3c130.8 0 252.8 64.7 326.2 173.2l1.9 2.8-41.5 23.4-1.5-2.4z m0 0M488.4 631.7c-1.2-0.2-2.5-0.2-3.6-0.3-13.2-0.8-26.7-2.8-41-5.9l-0.8 0.2-0.6-0.2c-25.6-5.8-50-15.1-73-27.9l-11.4-6.4h1.7c-12.5-7.6-24.3-16.4-35.4-26l-0.2 0.2-2.5-2.2c-8.6-7.6-16.5-15.7-23.9-24l-1.9-2 0.2-0.2c-32.9-38.3-54.2-84.9-61.7-135l-0.2-1.2c-1.1-7.5-1.9-14.6-2.2-21.5l-0.2-3.1c-0.3-4.7-0.6-9.5-0.6-14.5s0.3-9.8 0.6-14.5l0.2-3c0.5-6.7 1.1-13.9 2.2-21.7l0.2-1.1c7.5-50 28.8-96.6 61.7-135l-0.2-0.2 1.9-2c7.2-8.3 15.3-16.4 23.9-24l2.5-2.2 0.2 0.2c11.1-9.7 22.9-18.2 35.4-26H358l11.4-6.4c22.8-12.8 47.4-22.1 73-27.9l0.6-0.2 0.8 0.2c13.9-3.1 27.6-5 41-5.9 1.2-0.2 2.5-0.2 3.7-0.3 4.2-0.3 8.7-0.6 13.1-0.6 4.5 0 8.9 0.3 13.1 0.6 1.2 0.2 2.5 0.2 3.7 0.3 13.4 0.8 26.8 2.8 41 5.9l0.8-0.2 0.6 0.2c25.6 5.8 50 15.1 73 27.9l11.4 6.4h-1.6c12.3 7.6 24.2 16.2 35.1 25.7l0.2-0.2 2.8 2.5c8.4 7.5 16.4 15.6 23.8 24l1.7 2-0.2 0.2c32.9 38.3 54.2 84.9 61.7 135l0.2 1.2c1.1 7.3 1.9 14.7 2.2 21.7l0.2 2.8c0.3 4.8 0.6 9.7 0.6 14.6 0 5-0.3 9.8-0.6 14.7l-0.2 2.8c-0.5 6.9-1.1 13.9-2.2 21.7l-0.2 1.2c-7.5 50-28.8 96.6-61.9 135.1l0.2 0.2-1.7 2c-7.2 8.3-15.3 16.4-23.9 24l-2.5 2.2-0.2-0.2c-11.1 9.5-22.9 18.2-35.4 26h1.7l-11.4 6.4c-22.8 12.8-47.4 22.1-73 27.9l-0.6 0.2-0.8-0.2c-13.4 3-27.3 5-41 5.9-1.2 0-2.5 0.2-3.6 0.3-4.4 0.3-8.7 0.6-13.3 0.6-4.2-0.2-8.6-0.5-12.9-0.8z m-58.8-137.3c14.5 20.6 32 38.3 52.2 53.2v-64.7c-16.5 1.7-33.7 5.4-52.2 11.5z m52.2-51.1v-61.7h-92.9c2.3 26.8 9.2 52.8 20.6 77.3 23.7-8.5 48-13.8 72.3-15.6z m-89 67c-15.9 8.6-29.3 17.3-40.7 27 26.3 22.4 57.8 38.8 91.2 47.7 5.6-1.4 11.1-3.1 16.4-5-26.4-19.1-49-42.4-66.9-69.7zM388.9 342h92.9v-61.7c-24.8-1.9-49.1-7.2-72.3-15.6-11.4 24.4-18.4 50.4-20.6 77.3z m3.9-128.6c18.1-27.1 40.5-50.5 66.9-69.7-5.3-1.9-10.8-3.4-16.4-5-33.5 8.7-64.8 25.3-91.2 47.7 11.3 9.5 24.7 18.4 40.7 27zM271.9 381.7c4 46.4 22.4 91.5 52.4 127.3 15-13.1 31.5-24.5 49.1-34-13.6-29.6-21.7-60.9-24-93.4h-77.5z m77.3-39.7c2.3-32.4 10.4-63.9 24-93.4-17.5-9.5-34-20.9-49.1-34-29.8 35.8-48.3 80.9-52.4 127.3h77.5z m132.6-101.4V176c-20.3 14.8-37.7 32.7-52.2 53.3 18.5 6 35.7 9.8 52.2 11.3z m92-11.3c-14.5-20.6-32-38.3-52.2-53.3v64.7c16.5-1.6 33.6-5.4 52.2-11.4z m-52.2 50.9V342h92.9c-2.3-27-9.2-52.8-20.6-77.3-23.2 8.5-47.6 13.7-72.3 15.5z m89-66.8c16.1-8.6 29.3-17.5 40.7-27-26.3-22.4-57.8-39-91.2-47.7-5.3 1.4-10.6 3-15.7 4.8 26.1 19.2 48.4 42.6 66.2 69.9z m3.9 168.3h-92.9v61.7c24.8 1.9 49.1 7.2 72.3 15.6 11.4-24.5 18.2-50.5 20.6-77.3z m-3.9 128.6c-17.9 27.1-40.2 50.7-66.4 69.8 5.3 1.9 10.6 3.4 15.7 4.8 33.5-8.7 64.8-25.3 91.2-47.7-11.2-9.6-24.5-18.3-40.5-26.9zM731.5 342c-4-46.4-22.4-91.5-52.4-127.3-15 13.1-31.5 24.5-49.1 34 13.6 29.5 21.7 60.9 24 93.4h77.5z m-77.3 39.7c-2.3 32.4-10.4 63.9-24 93.4 17.6 9.5 34 20.9 49.1 34 29.9-35.8 48.3-80.9 52.4-127.3h-77.5zM521.6 483v64.5c20.4-15 37.9-32.9 52.2-53.2-18.4-6-35.6-9.7-52.2-11.3z m0 0"  horiz-adv-x="1024" />

    
    <glyph glyph-name="jiance" unicode="&#58972;" d="M905.22 68.36H177.63c-16.05 0-26.75 10.7-26.75 26.75V726.39c0 16.05-10.7 26.75-26.75 26.75s-26.75-10.7-26.75-26.75v-658.03c0-26.75 21.4-53.5 53.5-53.5h748.99c16.05 0 26.75 10.7 26.75 26.75s-10.7 26.75-21.4 26.75zM231.13 277h53.5c5.35 0 16.05 5.35 21.4 16.05l53.5 90.95 80.25-181.89 16.05-16.05c10.7-5.35 26.75 5.35 32.1 16.05l107 353.09 74.9-256.79c0-10.7 10.7-21.4 26.75-21.4h133.75c10.7-16.05 26.75-26.75 42.8-26.75 26.75 0 53.5 21.4 53.5 53.5s-21.4 53.5-53.5 53.5c-21.4 0-37.45-10.7-42.8-26.75h-117.7l-96.3 326.34c0 10.7-16.05 21.4-32.1 16.05-5.35 0-10.7-5.35-10.7-5.35s-5.35-5.35-5.35-10.7L455.82 287.7l-69.55 160.5c0 5.35-5.35 5.35-5.35 10.7-5.35 5.35-16.05 5.35-26.75 0-5.35 0-10.7-5.35-10.7-10.7l-74.9-117.7h-37.45c-16.05 0-26.75-10.7-26.75-26.75 0.01-10.7 10.71-26.75 26.76-26.75z m0 0"  horiz-adv-x="1024" />

    
    <glyph glyph-name="dingqipinggu" unicode="&#58974;" d="M441.51-0.11H192.93c-35.62 0-64.6 28.66-64.6 63.89V768c0 35.23 28.98 63.89 64.6 63.89h574.58c35.62 0 64.6-28.66 64.6-63.89v-338.82c0-17.67-14.33-32-32-32s-32 14.33-32 32V767.74c-0.1 0.07-0.29 0.15-0.6 0.15H192.93c-0.31 0-0.5-0.08-0.6-0.15v-703.7c0.1-0.07 0.29-0.15 0.6-0.15h248.58c17.67 0 32-14.33 32-32s-14.33-32-32-32z m94.9 292.77a32.015 32.015 0 0 1 23.99 17.24l123.95 245.33c7.97 15.77 1.64 35.02-14.13 42.99s-35.02 1.64-42.99-14.13L523.87 379.52 407.01 503.77a32.012 32.012 0 0 1-23.93 10.07c-9.04-0.17-17.59-4.17-23.52-10.99l-98.26-112.9c-11.6-13.33-10.2-33.54 3.13-45.15 13.33-11.6 33.55-10.2 45.15 3.13l75.04 86.23 123.91-131.75a31.993 31.993 0 0 1 27.88-9.75zM960.19 127c0-104.93-85.07-190-190-190s-190 85.07-190 190 85.07 190 190 190 190-85.07 190-190z m-123.8-65.53L781.2 133l25.84 70.75c6.06 16.6-2.48 34.97-19.08 41.04-16.6 6.06-34.97-2.48-41.04-19.08l-31.89-87.32a32.017 32.017 0 0 1 4.72-30.53l65.96-85.49c6.3-8.17 15.78-12.45 25.36-12.45 6.83 0 13.7 2.18 19.53 6.67 13.99 10.8 16.59 30.89 5.79 44.88z"  horiz-adv-x="1024" />

    
    <glyph glyph-name="ziyuanhuanjingchengzainenglijianceyujing" unicode="&#59064;" d="M85.817101 1.52782h882.810554a32.182477 32.182477 0 0 1 32.51494 32.51494 32.182477 32.182477 0 0 1-32.51494 32.501642H85.817101a32.182477 32.182477 0 0 1-32.51494-32.501642 32.182477 32.182477 0 0 1 32.51494-32.501642zM579.884613 171.217243L388.757937 394.832263 250.931825 556.063812c-14.947564 17.554078-42.901103 14.295935-53.300565-5.85136L0.001596 171.203944v-20.147294a32.182477 32.182477 0 0 1 32.501642-32.501642h988.786652a32.182477 32.182477 0 0 1 32.501642 32.501642V171.217243L759.960199 875.907097C750.199068 898.674204 720.30394 903.222306 704.69145 883.713342L410.208488 446.19124 644.887897 171.217243h-65.003284zM138.466037-115.48607h778.16431a32.182477 32.182477 0 0 1 32.501642 32.501642 32.182477 32.182477 0 0 1-32.501642 32.501642H138.466037a32.182477 32.182477 0 0 1-32.501641-32.501642 32.182477 32.182477 0 0 1 32.501641-32.501642z"  horiz-adv-x="1063" />

    
    <glyph glyph-name="zhibiaojiankong" unicode="&#59350;" d="M500.032 895.232a499.2 499.2 0 1 1 0-998.4 499.2 499.2 0 0 1 0 998.4z m0-931.84a432.64 432.64 0 1 0 0 865.28 432.64 432.64 0 0 0 0-865.28z m0 798.72a366.016 366.016 0 0 1-364.416-332.8h68.16c16.832 149.504 142.208 266.24 296.192 266.24 154.048 0 279.424-116.736 296.256-266.24h68.224a366.016 366.016 0 0 1-364.416 332.8z m33.28-505.344V562.368h-66.56v-305.6a99.52 99.52 0 0 1 33.28-193.536 99.52 99.52 0 1 1 33.28 193.536z m-33.28-127.04a33.28 33.28 0 1 0 0 66.56 33.28 33.28 0 0 0 0-66.56z"  horiz-adv-x="1024" />

    
    <glyph glyph-name="reduce" unicode="&#59321;" d="M960 832v-896H64V832h896z m-64-64H128v-768h768V768zM550.4 422.4h192v-76.8H281.6V422.4h268.8z"  horiz-adv-x="1024" />

    
    <glyph glyph-name="jia" unicode="&#58965;" d="M925.1-32.700000000000045H96.3V797.8h828.8v-830.5zM140 11h741.3V754.1H140V11z m0 0M761.6 361.5H258.9c-12.2 0-21.8 9.6-21.8 21.9 0 12.2 9.6 21.9 21.8 21.9h502.7c12.2 0 21.9-9.6 21.9-21.9-0.1-12.2-9.7-21.9-21.9-21.9z m0 0M510.7 119.39999999999998c-12.2 0-21.9 9.6-21.9 21.9V624.7c0 12.2 9.6 21.9 21.9 21.9 12.2 0 21.9-9.6 21.9-21.9v-483.4c-0.1-11.4-9.7-21.9-21.9-21.9z m0 0"  horiz-adv-x="1024" />

    
    <glyph glyph-name="shizhong" unicode="&#59151;" d="M512 748C262.4 748 64 549.6 64 300s198.4-448 448-448 448 198.4 448 448S761.6 748 512 748zM512-84c-211.2 0-384 172.8-384 384s172.8 384 384 384 384-172.8 384-384S723.2-84 512-84zM672 300 512 300 512 524c0 19.2-12.8 32-32 32l0 0C460.8 549.6 448 536.8 448 524l0-256 0 0 0 0C448 248.8 460.8 236 480 236l0 0c0 0 6.4 0 6.4 0l185.6 0C691.2 236 704 248.8 704 268l0 0C704 280.8 691.2 300 672 300z"  horiz-adv-x="1024" />

    
    <glyph glyph-name="leixing" unicode="&#59358;" d="M936.48 316a34.208 34.208 0 0 0-34.144 32.832c-4.992 135.936-82.208 261.44-201.44 327.552a34.048 34.048 0 0 0-13.312 46.336 34.08 34.08 0 0 0 46.336 13.408c140.096-77.696 230.72-225.088 236.672-384.704a34.24 34.24 0 0 0-32.832-35.424h-1.28zM512.064-125.056c-96.8 0-189.696 30.176-268.768 87.232a34.144 34.144 0 0 0 40 55.36c136.416-98.496 327.84-96.96 462.656 3.904a34.24 34.24 0 0 0 47.776-6.912c11.264-15.136 8.192-36.448-6.88-47.776a455.2 455.2 0 0 0-274.784-91.84zM87.552 313.408h-1.088a34.112 34.112 0 0 0-33.024 35.2A459.008 459.008 0 0 0 305.76 744.32a34.08 34.08 0 1 0 30.784-60.896 390.912 390.912 0 0 1-214.848-336.96 34.208 34.208 0 0 0-34.144-33.056zM520.48 896a136.576 136.576 0 0 0 136.512-136.544 136.576 136.576 0 0 0-136.512-136.512 136.576 136.576 0 0 0-136.544 136.512A136.576 136.576 0 0 0 520.48 896z m0-68.256a68.384 68.384 0 0 1-68.288-68.288c0-37.6 30.656-68.256 68.288-68.256a68.32 68.32 0 0 1 68.256 68.256 68.32 68.32 0 0 1-68.256 68.288z m366.976-542.016a136.544 136.544 0 1 0 0-273.056 136.544 136.544 0 0 0 0 273.056z m0-68.256a68.288 68.288 0 1 1 68.256-68.256 68.32 68.32 0 0 1-68.256 68.256zM136.544 285.728a136.544 136.544 0 1 0 0-273.056 136.544 136.544 0 0 0 0 273.056z m0-68.256a68.384 68.384 0 0 1-68.288-68.256c0-37.696 30.656-68.288 68.288-68.288A68.32 68.32 0 0 1 204.8 149.216a68.384 68.384 0 0 1-68.256 68.256z"  horiz-adv-x="1024" />

    
    <glyph glyph-name="shujubiao" unicode="&#59006;" d="M128 810.7c-23.6 0-42.7-19.1-42.7-42.7v-170.7c0-23.6 19.1-42.7 42.7-42.7h768c23.6 0 42.7 19.1 42.7 42.7V768c0 23.6-19.1 42.7-42.7 42.7H128zM280 64H85.3v42.7H280c9.5 36.8 42.9 64 82.6 64 47.1 0 85.3-38.2 85.3-85.3S409.8 0 362.7 0c-39.8 0-73.2 27.2-82.7 64z m0 298.7H85.3v42.7H280c9.5 36.8 42.9 64 82.6 64 47.1 0 85.3-38.2 85.3-85.3s-38.2-85.3-85.3-85.3c-39.7-0.1-73.1 27.1-82.6 63.9z m-208.4-128c-17.7 15.6-28.9 38.5-28.9 64V469.3c0 25.5 11.2 48.4 28.9 64-17.7 15.6-28.9 38.5-28.9 64V768c0 47.1 38.2 85.3 85.3 85.3h768c47.1 0 85.3-38.2 85.3-85.3v-170.7c0-25.5-11.2-48.4-28.9-64 17.7-15.6 28.9-38.5 28.9-64v-170.7c0-25.5-11.2-48.4-28.9-64 17.7-15.6 28.9-38.5 28.9-64V0c0-47.1-38.2-85.3-85.3-85.3H128c-47.1 0-85.3 38.2-85.3 85.3V170.7c0 25.5 11.1 48.3 28.9 64zM896 256c23.6 0 42.7 19.1 42.7 42.7V469.3c0 23.6-19.1 42.7-42.7 42.7H128c-23.6 0-42.7-19.1-42.7-42.7v-170.7c0-23.6 19.1-42.7 42.7-42.7h768z m-768-42.7c-23.6 0-42.7-19.1-42.7-42.7V0c0-23.6 19.1-42.7 42.7-42.7h768c23.6 0 42.7 19.1 42.7 42.7V170.7c0 23.6-19.1 42.7-42.7 42.7H128z m234.7 128c23.6 0 42.7 19.1 42.7 42.7s-19.1 42.7-42.7 42.7S320 407.6 320 384s19.1-42.7 42.7-42.7z m0-298.6c23.6 0 42.7 19.1 42.7 42.7S386.2 128 362.7 128 320 108.9 320 85.3s19.1-42.6 42.7-42.6z m192 384h42.7v-85.3h-42.7v85.3z m0-298.7h42.7v-85.3h-42.7V128z m128 298.7h42.7v-85.3h-42.7v85.3z m0-298.7h42.7v-85.3h-42.7V128z m128 298.7h42.7v-85.3h-42.7v85.3z m0-298.7h42.7v-85.3h-42.7V128z m-448 469.3c-47.1 0-85.3 38.2-85.3 85.3s38.2 85.3 85.3 85.3 85.3-38.2 85.3-85.3-38.2-85.3-85.3-85.3z m0 42.7c23.6 0 42.7 19.1 42.7 42.7s-19.1 42.7-42.7 42.7-42.7-19.2-42.7-42.7 19.1-42.7 42.7-42.7zM85.3 661.3V704h214v-42.7h-214z m469.4 64h42.7V640h-42.7v85.3z m128 0h42.7V640h-42.7v85.3z m128 0h42.7V640h-42.7v85.3z"  horiz-adv-x="1024" />

    
    <glyph glyph-name="wanzhengdu" unicode="&#58960;" d="M192.273067 534.186667c-98.986667 0-180.906667 81.92-180.906667 180.906666s81.92 180.906667 180.906667 180.906667 180.906667-81.92 180.906666-180.906667-81.92-180.906667-180.906666-180.906666z m0 293.546666c-61.44 0-112.64-51.2-112.64-112.64s51.2-112.64 112.64-112.64 112.64 51.2 112.64 112.64-51.2 112.64-112.64 112.64zM560.913067 680.96h-221.866667c-20.48 0-34.133333 13.653333-34.133333 34.133333s13.653333 34.133333 34.133333 34.133334h221.866667c20.48 0 34.133333-13.653333 34.133333-34.133334s-17.066667-34.133333-34.133333-34.133333zM854.459733-128c-98.986667 0-180.906667 81.92-180.906666 180.906667s81.92 180.906667 180.906666 180.906666 180.906667-81.92 180.906667-180.906666-81.92-180.906667-180.906667-180.906667z m0 293.546667c-61.44 0-112.64-51.2-112.64-112.64s51.2-112.64 112.64-112.64 112.64 51.2 112.64 112.64-51.2 112.64-112.64 112.64zM707.6864 18.773333h-221.866667c-20.48 0-34.133333 13.653333-34.133333 34.133334s13.653333 34.133333 34.133333 34.133333h221.866667c20.48 0 34.133333-13.653333 34.133333-34.133333s-17.066667-34.133333-34.133333-34.133334zM854.459733 534.186667c-98.986667 0-180.906667 81.92-180.906666 180.906666s81.92 180.906667 180.906666 180.906667 180.906667-81.92 180.906667-180.906667-81.92-180.906667-180.906667-180.906666z m0 293.546666c-61.44 0-112.64-51.2-112.64-112.64s51.2-112.64 112.64-112.64 112.64 51.2 112.64 112.64-51.2 112.64-112.64 112.64zM854.459733 312.32c-20.48 0-34.133333 13.653333-34.133333 34.133333V568.32c0 20.48 13.653333 34.133333 34.133333 34.133333s34.133333-13.653333 34.133334-34.133333v-221.866667c0-17.066667-17.066667-34.133333-34.133334-34.133333zM192.8192-128c-98.986667 0-180.906667 81.92-180.906667 180.906667s81.92 180.906667 180.906667 180.906666 180.906667-81.92 180.906667-180.906666-81.92-180.906667-180.906667-180.906667z m0 293.546667c-61.44 0-112.64-51.2-112.64-112.64s51.2-112.64 112.64-112.64 112.64 51.2 112.64 112.64-51.2 112.64-112.64 112.64zM192.8192 165.546667c-20.48 0-34.133333 13.653333-34.133333 34.133333v221.866667c0 20.48 13.653333 34.133333 34.133333 34.133333s34.133333-13.653333 34.133333-34.133333v-221.866667c0-17.066667-17.066667-34.133333-34.133333-34.133333z"  horiz-adv-x="1058" />

    
    <glyph glyph-name="neironganquan" unicode="&#58962;" d="M922.244258 280.900796v206.195848a89.367049 89.367049 0 1 1-77.497988 143.592368L592.470537 767.99776A89.367049 89.367049 0 0 1 511.714376 895.99744a88.901596 88.901596 0 0 1-80.523435-127.99968L179.147934 630.689012a89.367049 89.367049 0 1 1-86.574329-142.661461v-208.057662a89.367049 89.367049 0 1 1 77.032535-153.134162l255.99936-139.636015a81.221615 81.221615 0 0 1-4.189081-25.134483 89.599776 89.599776 0 0 1 179.199552 0 88.668869 88.668869 0 0 1-4.18908 24.66903l255.99936 139.636014a89.367049 89.367049 0 1 1 69.818007 154.530523z m-778.238054-6.516347v219.228542a93.090676 93.090676 0 0 1 29.323563 20.479949l251.577553-137.308747v-1.163634L181.940655 243.199072a89.599776 89.599776 0 0 1-38.167178 31.185377z m54.225319-80.988889l252.973913 138.006928a86.574329 86.574329 0 0 1 35.14173-20.014496v-264.37752a86.574329 86.574329 0 0 1-31.883556-17.221776L195.438803 171.053798a89.134323 89.134323 0 0 1 2.79272 20.945402s-0.232727 0.930907-0.232727 1.39636z m339.315515-146.385088V311.387992a87.505236 87.505236 0 0 1 35.607184 20.014496l252.741186-138.006928v-1.39636a78.428895 78.428895 0 0 1 2.792721-20.945402l-259.490261-141.265102a84.945242 84.945242 0 0 1-31.883556 17.221776z m304.173785 196.1886L598.521431 375.620559v1.163634l251.577553 137.308747a82.617975 82.617975 0 0 1 20.247222-15.592688v-229.003064a88.203416 88.203416 0 0 1-28.858109-26.298116z m-14.429055 316.275573l-232.72669-127.068773a89.367049 89.367049 0 0 1-56.552586 49.803512V720.986968a79.592528 79.592528 0 0 1 19.316315 8.378161l269.264781-147.083268v-6.283621a97.04703 97.04703 0 0 1 0.465454-16.523595z m-360.493644 169.890484a83.781609 83.781609 0 0 1 19.316316-8.378161v-238.777584a89.832503 89.832503 0 0 1-56.552586-49.803512l-232.726691 127.068773a97.04703 97.04703 0 0 1 1.629087 16.523595 57.716219 57.716219 0 0 1 0 6.283621z"  horiz-adv-x="1024" />

    
    <glyph glyph-name="wulianwang-" unicode="&#58963;" d="M637.44 737.4848a12.6464 12.6464 0 0 0-6.4 1.7152L512 807.9104l-119.04-68.7104a12.8256 12.8256 0 0 0-17.4848 4.6848 12.7488 12.7488 0 0 0 4.6848 17.4848L512 837.4528l131.84-76.0832a12.8 12.8 0 0 0-6.4-23.8848zM512-69.45280000000002l-131.84 76.0832a12.8 12.8 0 0 0 12.8 22.1696L512-39.91039999999998l119.04 68.7104a12.8 12.8 0 0 0 12.8-22.1696L512-69.45280000000002zM132.0704 445.7216a12.8 12.8 0 0 0-12.8 12.8l0.0256 152.2176 131.7888 76.1344a12.7744 12.7744 0 1 0 12.8-22.1696L144.896 595.9424l-0.0256-137.4464a12.7744 12.7744 0 0 0-12.8-12.7744zM766.4896 79.43679999999995a12.8 12.8 0 0 0-6.4 23.8848l118.9888 68.736 0.0256 137.4464a12.8 12.8 0 0 0 25.6 0l-0.0256-152.2176-131.7888-76.1344a12.6464 12.6464 0 0 0-6.4-1.7152zM257.5104 79.43679999999995a12.6464 12.6464 0 0 0-6.4 1.7152L119.296 157.28639999999996l-0.0256 152.2176a12.8 12.8 0 0 0 25.6 0l0.0256-137.4464 118.9888-68.736a12.8 12.8 0 0 0-6.3744-23.8848zM891.9296 445.7216a12.8 12.8 0 0 0-12.8 12.8l-0.0256 137.4464-118.9888 68.736a12.8 12.8 0 0 0 12.8 22.1696l131.7888-76.1344 0.0256-152.2176a12.8 12.8 0 0 0-12.8-12.8zM403.9168 317.77279999999996l-0.256-87.936a3.2256 3.2256 0 0 0-4.8384-2.7904l-76.5696 44.2112a3.2256 3.2256 0 0 0-1.6128 2.7904l0.256 87.936c0 2.4832 2.688 4.0192 4.8384 2.7904l76.5696-44.2112a3.2 3.2 0 0 0 1.6128-2.7904zM404.224 432.2048l-0.256-87.936a3.2256 3.2256 0 0 0-4.8384-2.7904L322.56 385.6896a3.2256 3.2256 0 0 0-1.6128 2.7904l0.256 87.936c0 2.4832 2.688 4.0192 4.8384 2.7904l76.5696-44.2112c1.024-0.5888 1.6384-1.6384 1.6128-2.7904zM503.4752 260.3008l-0.256-87.936a3.2256 3.2256 0 0 0-4.8384-2.7904l-76.5696 44.2112a3.2256 3.2256 0 0 0-1.6128 2.7904l0.256 87.936c0 2.4832 2.688 4.0192 4.8384 2.7904l76.5696-44.2112a3.2256 3.2256 0 0 0 1.6128-2.7904zM620.0832 317.77279999999996l0.256-87.936c0-2.4832 2.688-4.0192 4.8384-2.7904l76.5696 44.2112a3.2256 3.2256 0 0 1 1.6128 2.7904l-0.256 87.936a3.2256 3.2256 0 0 1-4.8384 2.7904l-76.5696-44.2112a3.2 3.2 0 0 1-1.6128-2.7904zM619.776 432.2048l0.256-87.936c0-2.4832 2.688-4.0192 4.8384-2.7904l76.5696 44.2112a3.2256 3.2256 0 0 1 1.6128 2.7904l-0.256 87.936a3.2256 3.2256 0 0 1-4.8384 2.7904l-76.5696-44.2112a3.1232 3.1232 0 0 1-1.6128-2.7904zM520.5248 260.3008l0.256-87.936c0-2.4832 2.688-4.0192 4.8384-2.7904l76.5696 44.2112a3.2256 3.2256 0 0 1 1.6128 2.7904l-0.256 87.936a3.2256 3.2256 0 0 1-4.8384 2.7904l-76.5696-44.2112a3.2256 3.2256 0 0 1-1.6128-2.7904zM514.048 506.3168l76.032 44.1856a3.2256 3.2256 0 0 1 0 5.5808l-76.5696 44.2112a3.2256 3.2256 0 0 1-3.2256 0l-76.032-44.1856a3.2256 3.2256 0 0 1 0-5.5808l76.5696-44.2112a3.1744 3.1744 0 0 1 3.2256 0zM415.1296 448.8192l76.032 44.1856a3.2256 3.2256 0 0 1 0 5.5808l-76.5696 44.2112a3.2256 3.2256 0 0 1-3.2256 0l-76.032-44.1856a3.2256 3.2256 0 0 1 0-5.5808l76.5696-44.2112a3.2256 3.2256 0 0 1 3.2256 0zM613.6064 448.8192l76.032 44.1856a3.2256 3.2256 0 0 1 0 5.5808l-76.5696 44.2112a3.2256 3.2256 0 0 1-3.2256 0l-76.032-44.1856a3.2256 3.2256 0 0 1 0-5.5808l76.5696-44.2112a3.2256 3.2256 0 0 1 3.2256 0zM603.776 432.2048l-0.256-87.936a3.2256 3.2256 0 0 0-4.8384-2.7904l-76.5696 44.2112a3.2256 3.2256 0 0 0-1.6128 2.7904l0.256 87.936c0 2.4832 2.688 4.0192 4.8384 2.7904l76.5696-44.2112a3.2256 3.2256 0 0 0 1.6128-2.7904zM420.224 432.2048l0.256-87.936c0-2.4832 2.688-4.0192 4.8384-2.7904l76.5696 44.2112a3.2256 3.2256 0 0 1 1.6128 2.7904l-0.256 87.936a3.2256 3.2256 0 0 1-4.8384 2.7904l-76.5696-44.2112a3.2256 3.2256 0 0 1-1.6128-2.7904zM514.048 278.16959999999995l76.032 44.1856a3.2256 3.2256 0 0 1 0 5.5808l-76.5696 44.2112a3.2256 3.2256 0 0 1-3.2256 0l-76.032-44.1856a3.2256 3.2256 0 0 1 0-5.5808l76.5696-44.2112a3.3024 3.3024 0 0 1 3.2256 0z"  horiz-adv-x="1024" />

    
    <glyph glyph-name="zhuxiao1" unicode="&#58956;" d="M519.881504 319.220624c21.116947 0 38.235836 17.118889 38.235836 38.235836L558.11734 793.66938c0 21.116947-17.118889 38.235836-38.235836 38.235836-21.116947 0-38.235836-17.118889-38.235836-38.235836l0-436.211896C481.645668 336.339514 498.764558 319.220624 519.881504 319.220624zM875.898941 611.155557c-45.686529 69.296249-109.738333 123.891681-185.227632 157.883867-19.257599 8.671497-41.893132 0.090051-50.563606-19.165502-8.670473-19.255553-0.089028-41.893132 19.165502-50.563606 128.686894-57.945737 211.838709-186.54872 211.838709-327.631946 0-198.014866-161.097048-359.111914-359.111914-359.111914S152.888086 173.664527 152.888086 371.67837c0 139.463332 81.813331 267.455401 208.429053 326.074474 19.163455 8.872065 27.505447 31.598672 18.633383 50.761104-8.872065 19.163455-31.597649 27.505447-50.761104 18.633383-74.4005-34.444487-137.446395-89.037872-182.323489-157.87875-46.088688-70.697155-70.448492-152.854317-70.448492-237.591233 0-58.785871 11.522428-115.835192 34.245965-169.55979 21.940708-51.873438 53.342906-98.453313 93.333712-138.444119 39.990806-39.990806 86.569658-71.39198 138.444119-93.333712 53.725622-22.723537 110.772896-34.245965 169.55979-34.245965s115.835192 11.522428 169.55979 34.245965c51.873438 21.941732 98.453313 53.342906 138.444119 93.333712 39.990806 39.990806 71.393004 86.569658 93.333712 138.444119 22.724561 53.725622 34.245965 110.773919 34.245965 169.55979C947.583586 457.215512 922.795017 540.024519 875.898941 611.155557z"  horiz-adv-x="1024" />

    
    <glyph glyph-name="weibiaoti2fuzhi03" unicode="&#58955;" d="M627.2 275.2l-12.8 128 89.6 96L576 518.4 512 633.6 448 518.4 326.4 492.8l89.6-96-12.8-128L512 326.4 627.2 275.2zM512 275.2l-172.8-83.2 25.6 192-128 140.8 185.6 38.4L512 729.6l89.6-166.4 185.6-38.4-128-140.8 25.6-192L512 275.2zM851.2 6.4 851.2 787.2 172.8 787.2l0-780.8L512 153.6 851.2 6.4zM512 102.4 128-64 128 832l768 0 0-896L512 102.4z"  horiz-adv-x="1024" />

    
    <glyph glyph-name="wenjianguanli" unicode="&#59556;" d="M85.57909333 811.19763001h252.43496334v-854.39526002h-252.43496334zM396.2682789 811.19763001h252.4349622v-854.39526002h-252.4349622zM706.95746333 811.19763001h252.43496334v-854.39526002h-252.43496334zM755.50264889 752.94340779h155.34459221v-155.34459336h-155.34459221zM755.50264889 150.98311110999998h155.34459221v-38.83614777h-155.34459221zM755.50264889 53.89274111999998h155.34459221v-38.83614891h-155.34459221zM444.81346333 752.94340779h155.34459334v-155.34459336h-155.34459334zM444.81346333 150.98311110999998h155.34459334v-38.83614777h-155.34459334zM444.81346333 53.89274111999998h155.34459334v-38.83614891h-155.34459334zM129.07557888 150.98311110999998h155.34459335v-38.83614777h-155.34459335zM129.07557888 53.89274111999998h155.34459335v-38.83614891h-155.34459335z"  horiz-adv-x="1024" />

    
    <glyph glyph-name="zhuanti" unicode="&#58941;" d="M129.503493 767.910717l711.452611 0 0-64.465221-711.452611 0 0 64.465221ZM448.561156 448.214511l318.959426 0 0-64.465221-318.959426 0 0 64.465221ZM447.788559 192.855612l318.959426 0 0-64.465221-318.959426 0 0 64.465221ZM255.853156 640.082376l511.674589 0 0-127.934764-511.674589 0 0 127.934764ZM255.916601 448.383356l127.82834 0 0-319.992965-127.82834 0 0 319.992965ZM127.956254 767.910717l63.833841 0 0-767.479649-63.833841 0 0 767.479649ZM831.746348 767.910717l63.566758 0 0-639.520325-63.566758 0 0 639.520325ZM127.956254 64.387705l831.638901 0 0-63.956637-831.638901 0 0 63.956637ZM703.056384 448.214511l64.465221 0 0-318.959426-64.465221 0 0 318.959426ZM447.788559 448.214511l63.912635 0 0-318.959426-63.912635 0 0 318.959426Z"  horiz-adv-x="1024" />

    
    <glyph glyph-name="priodplan" unicode="&#58953;" d="M166.5408 352.352h312.55466667c9.08266667 0 16.46933333 7.3536 16.46933333 16.46826667v16.4352c0 9.0816-7.38666667 16.4352-16.46933333 16.4352h-312.55466667c-9.1136 0-16.4672-7.3536-16.4672-16.4352v-16.4352a16.44373333 16.44373333 0 0 1 16.4672-16.46826667zM429.74293333 237.17759999999998H166.5408c-9.1136 0-16.4672-7.3376-16.4672-16.4352v-16.4352a16.44373333 16.44373333 0 0 1 16.4672-16.4672h263.20213333c9.0816 0 16.46826667 7.3536 16.46826667 16.4672v16.4352c0 9.09866667-7.38666667 16.4352-16.46826667 16.4352zM166.5408 533.3322666700001h394.81173333c9.0816 0 16.4352 7.33653333 16.4352 16.43413333v16.4352c0 9.11466667-7.3536 16.46826667-16.4352 16.46826667H166.5408a16.44373333 16.44373333 0 0 1-16.4672-16.46826667v-16.4352c0-9.0976 7.3536-16.43413333 16.4672-16.43413333zM766.976 352.352c-122.66026667 0-222.07466667-99.39733333-222.07466667-222.0736s99.41333333-222.10773333 222.07466667-222.10773333c122.67733333 0 222.10666667 99.44853333 222.10666667 222.10773333S889.65333333 352.336 766.976 352.352z m0-394.82773333c-95.2192 0-172.72106667 77.4848-172.72106667 172.75413333 0 95.2192 77.50186667 172.72 172.72106667 172.72 95.26826667 0 172.75306667-77.5008 172.75306667-172.72 0-95.26933333-77.48373333-172.75413333-172.75306667-172.75413333zM873.92426667 138.48746667h-115.15733334v98.69013333c0 9.11466667-7.35466667 16.46826667-16.4352 16.46826667h-16.46933333c-9.08053333 0-16.45013333-7.3536-16.45013333-16.45226667v-131.6096c0-9.0816 7.3696-16.4512 16.4512-16.4512h148.0608c9.0816 0 16.45226667 7.37066667 16.45226666 16.4512v16.4352c0 9.11466667-7.37066667 16.46826667-16.45226666 16.46826667zM599.07946667-43.258666670000025a239.06133333 239.06133333 0 0 0-3.49013334 3.06666667c-0.32 0.28586667-0.64106667 0.56853333-0.96 0.85653333a234.63466667 234.63466667 0 0 0-4.18666666 3.8848c-0.3456 0.32853333-0.68586667 0.6624-1.0304 0.99306667-1.07626667 1.03466667-2.144 2.08-3.2 3.136-0.40533333 0.40533333-0.81173333 0.80853333-1.21493334 1.21706667a238.83413333 238.83413333 0 0 0-3.936 4.07146666c-0.17386667 0.18453333-0.3424 0.37333333-0.5152 0.55786667a244.23466667 244.23466667 0 0 0-4.64426666 5.1136 244.33813333 244.33813333 0 0 0-2.7904 3.21813333c-0.34666667 0.40746667-0.69866667 0.81066667-1.0432 1.22026667a236.9728 236.9728 0 0 0-3.456 4.21333333c-0.416 0.51733333-0.8224 1.04-1.23306667 1.55946667a243.21066667 243.21066667 0 0 0-2.34773333 3.02613333c-0.43946667 0.57493333-0.88 1.14986667-1.31306667 1.73013334a243.12426667 243.12426667 0 0 0-3.02186667 4.12053333c-0.4 0.55893333-0.79146667 1.12533333-1.18613333 1.68746667a243.54666667 243.54666667 0 0 0-2.176 3.14453333c-0.46293333 0.68266667-0.92266667 1.3664-1.3792 2.05333333-25.01653333 37.66186667-39.60533333 82.848-39.60533333 131.4528 0 131.4176 106.53546667 237.95306667 237.95306666 237.95306667 5.0624 0 10.08533333-0.16746667 15.06986667-0.48v-0.00853333c9.408-0.5888 18.66666667-1.72266667 27.74613333-3.37066667l0.14186667-0.02453333c2.21333333-0.40213333 4.416-0.83733333 6.60586667-1.30133334l0.39893333-0.08533333c2.048-0.43733333 4.0864-0.9024 6.11413333-1.392l0.49066667-0.11626667c2.00106667-0.48746667 3.98933333-1.0048 5.968-1.5424 0.4032-0.10986667 0.8064-0.22186667 1.20746667-0.33386666 1.97653333-0.5472 3.94666667-1.11253333 5.90293333-1.70986667V727.30346667c0 74.25386667-60.752 135.00586667-135.0048 135.00586666H168.68906667c-74.2528 0-135.0048-60.752-135.0048-135.00586666v-640.32213334c0-74.2528 60.752-135.00586667 135.0048-135.00586666H604.77013333a237.00693333 237.00693333 0 0 0-4.45546666 3.70666666c-0.4128 0.352-0.82346667 0.70613333-1.2352 1.0592z m-416.5632 49.8112c-51.84 0-94.25493333 42.41386667-94.25493334 94.25493334V717.18826667c0 49.79946667 40.74453333 90.54506667 90.544 90.54506666h484.85013334c58.14506667 0 105.71946667-47.5744 105.71946666-105.72053333v-272.8128a294.816 294.816 0 0 1-15.06986666 0.39146667c-161.5584 0-292.52906667-130.9696-292.52906667-292.52906667 0-46.90453333 11.05706667-91.22133333 30.68266667-130.51093333H182.51733333z"  horiz-adv-x="1024" />

    
    <glyph glyph-name="shujutianbao" unicode="&#59140;" d="M838.31466667-82.48888889H135.85066667c-22.64177778 0-40.96 18.31822222-40.96 40.96V806.57066667c0 22.64177778 18.31822222 40.96 40.96 40.96h523.60533333c22.64177778 0 40.96-18.31822222 40.96-40.96s-18.31822222-40.96-40.96-40.96H176.81066667V-0.5688888900000393h620.544V581.06311111c0 22.64177778 18.31822222 40.96 40.96 40.96s40.96-18.31822222 40.96-40.96V-41.52888888999996c0-22.64177778-18.432-40.96-40.96-40.96zM620.43022222 403.22844445l-81.92 57.00266666c-10.24 7.168-12.85688889 21.27644445-5.68888889 31.63022222l188.07466667 270.56355556c7.168 10.24 21.27644445 12.85688889 31.63022222 5.68888889l81.92-57.00266667c10.24-7.168 12.85688889-21.27644445 5.68888889-31.63022222L652.06044445 408.91733333c-7.168-10.24-21.27644445-12.85688889-31.63022223-5.68888888z m-111.95733333-88.064l109.68177778 47.5591111c8.07822222 3.52711111 9.10222222 14.44977778 1.93422222 19.456l-103.424 71.79377778c-7.168 5.00622222-17.06666667 0.11377778-17.52177778-8.53333333l-6.37155556-119.46666667c-0.34133333-8.192 8.07822222-14.10844445 15.70133334-10.80888888z m383.77244444 467.17155555L799.06133333 847.07555555c-7.168 5.00622222-17.18044445 3.18577778-22.07288888-3.98222222l-24.34844445-34.92977778c-5.00622222-7.168-3.18577778-17.18044445 3.98222222-22.07288888l93.07022223-64.73955556c7.168-5.00622222 17.18044445-3.18577778 22.07288888 3.98222222l24.34844445 34.92977778c5.12 7.05422222 3.29955555 17.06666667-3.86844445 22.07288889zM648.07822222 213.10577778000004H307.65511111c-22.64177778 0-40.96 18.31822222-40.96 40.96s18.31822222 40.96 40.96 40.96h340.53688889c22.64177778 0 40.96-18.31822222 40.96-40.96s-18.432-40.96-41.07377778-40.96z m0-147.79733333H307.65511111c-22.64177778 0-40.96 18.31822222-40.96 40.96s18.31822222 40.96 40.96 40.96h340.53688889c22.64177778 0 40.96-18.31822222 40.96-40.96s-18.432-40.96-41.07377778-40.96z"  horiz-adv-x="1024" />

    
    <glyph glyph-name="taxian" unicode="&#59000;" d="M957.15934815 15.299318520000043H55.67525925V771.75466667L295.85256297 752.94340741l228.40509628-552.08011852 269.42577778 362.38980741 163.47591112 18.81125925zM564.4288 446.98737778l52.91425185-86.65315556 45.51111112 43.32657778v64.5650963L599.38133333 513.85837037zM620.01303703 746.14708148l-66.74962962-127.55247407h35.92343704l60.19602963 19.6608 62.98737777 44.05475556zM429.47318518 575.26802963l94.29902223-61.40965926L645.49925925 575.26802963l-153.03869628 43.32657778zM378.74346667 592.38020741l19.6608 134.71288889 43.20521481-99.51762963-34.46708148-59.83194075zM725.11336297 640.68266667l-66.99235556-100.85262222 66.99235556 26.45712592 76.21594073 99.51762963zM509.33001482 374.77641482l84.22589629 8.4954074-55.34151111-63.71555555 13.1072-35.43798519-93.69220741 80.34228149z"  horiz-adv-x="1024" />

    
    <glyph glyph-name="tongji" unicode="&#58954;" d="M960 25.600000000000023H810.66666667V503.46666667c0 32.96-26.77333333 59.73333333-59.73333334 59.73333333H631.46666667V682.66666667c0 32.96-26.77333333 59.73333333-59.73333334 59.73333333H452.26666667c-32.96 0-59.73333333-26.77333333-59.73333334-59.73333333v-358.4H273.06666667c-32.96 0-59.73333333-26.77333333-59.73333334-59.73333334v-238.93333333H93.86666667V772.26666667c0 16.53333333-13.33333333 29.86666667-29.86666667 29.86666666s-29.86666667-13.33333333-29.86666667-29.86666666v-746.66666667c0-32.96 26.77333333-59.73333333 59.73333334-59.73333333h866.13333333c16.53333333 0 29.86666667 13.33333333 29.86666667 29.86666666s-13.33333333 29.86666667-29.86666667 29.86666667z m-686.93333333 0V264.53333333h119.46666666v-238.93333333H273.06666667z m179.2 0V682.66666667h119.46666666v-657.06666667H452.26666667z m179.2 0V503.46666667h119.46666666v-477.86666667H631.46666667z"  horiz-adv-x="1024" />

    
    <glyph glyph-name="Feiqukuangshan" unicode="&#59025;" d="M418.3771424 614.15619093L597.82095253 852.11428587l179.44380907-237.95809494h-358.8876192z m-113.12761813-241.85904853l292.57142826 382.29333333 292.57142827-382.29333333h-585.14285653z m-93.6228576-237.95809493l386.19428586 507.12381013 386.19428587-507.12381013H211.62666667zM551.00952427 266.97142827000005h93.62285653v-351.08571414H551.00952427v351.08571414z m-198.94857174-183.3447616h74.11809494v-136.53333334H352.06095253v136.53333334zM203.8247616 344.99047572999996l167.74095253 226.2552384H305.24952427L433.98095253 738.98666667l-39.00952426 46.81142826-163.84-214.5523808h66.31619093L129.70666667 344.99047572999996h74.11809493z m3.90095253 0L43.88571413 130.43809493000003h74.11809494L281.84380907 344.99047572999996H207.72571413z"  horiz-adv-x="1024" />

    
    <glyph glyph-name="Zaijiankuangshan" unicode="&#59130;" d="M749.18 289.65c16.45 26.66 29.44 61.14 31.11 105.12 0 0 2.65 73.19-46.56 164.74 0 0-22.22 30.78-22.54 73.79 0.14 11.08 7.85 22.6 9.54 24.95-0.19-0.26-0.38-0.52-0.9-1.17-5.36-6.77-46.56-18.13-59.95-21.63l-10.18-2.64c2.77 0.71-36-14.52-69.91-41.33a310.75 310.75 0 0 1-48.89-48.07c74.7-29 115-62.75 115-62.75 73.86-63.26 97.33-136.3 103.28-191.01zM511.82 889C232.86 889 6.73 662.86 6.73 383.90999999999997s226.14-505.09 505.09-505.09S1016.91 105 1016.91 383.90999999999997 790.77 889 511.82 889z m34.44-918.35c-247.26 0-447.7 200.44-447.7 447.69S299 866 546.26 866 994 665.6 994 418.35s-200.49-447.7-447.74-447.7z m-283.82 650.4c-0.42 1.65-0.43 1.44 0 0zM797 774.11c80-74.39 132.38-183.22 132.38-290.33 0-150.32-109-289.73-249.24-340.82-16.2-5.9-98.25-35.08-152.24-7.37q-6.7 3.44-13.37 7.53c-30.23 18.59-59.72 47.51-87.14 90 0 0 128.95-81.5 272.88-48.63 0 0 38.64 154.21-100.22 273.18 0 0-77.28 66-219.16 92.46 0 0-52.58 2.87-99.61 39.63-11.51 9.37-17.41 26.64-18.8 31.27 0.1-0.4 0.23-0.91 0.38-1.55 2.75-11.56-20.36-65.26-28.07-82.55-2.33-5.22-4.27-9.54-5.89-13.13 1.6 3.56-15.21-50.91-15.24-110.16-0.13-258.14 209.21-373.83 361.63-374.14C806.67 41.629999999999995 971 264 971 464.15c0 137.1-68.28 248.36-174 309.96z"  horiz-adv-x="1024" />

    
    <glyph glyph-name="kuangshanguanli" unicode="&#58940;" d="M87.72266667 22.186666670000022H937.52888889v47.21777778H87.72266667V22.186666670000022z m165.20533333 419.27111111l237.90933333-277.61777778h69.06311112L388.89244445 363.97511110999994l296.84622222 366.36444444 238.70577778-566.49955555h60.416L702.35022222 840.24888889 350.43555555 408.91733333l-113.20888888 132.43733334-196.83555556-377.51466667h68.94933334l143.58755555 277.61777778z m671.63022222-277.84533333H226.53155555l0.11377778 0.11377777H109.22666667l0.11377778 0.11377778H40.50488889V116.62222222000003h944.24177778v47.21777778h-60.30222222l0.11377777-0.22755555zM134.94044445-72.24888888999999h755.37066666v47.21777778H134.94044445V-72.24888888999999z"  horiz-adv-x="1024" />

    
    <glyph glyph-name="excel1" unicode="&#58939;" d="M995.537211 781.323359H540.958081V-14.346962H995.537211a28.462789 28.462789 0 0 1 28.462789 28.462788V752.89359a28.462789 28.462789 0 0 1-28.462789 28.429769zM739.801367 639.240552h198.876306v-85.190249h-198.876306v85.190249z m0-284.198633h198.876306v-85.190249h-198.876306v85.190249z m0-142.082806h198.876306v-85.190249h-198.876306v85.190249z m0 284.198632h198.876306v-85.223268h-198.876306v85.190249z m-198.843286 142.082807h142.082806v-85.190249h-142.082806v85.190249z m0-284.198633h142.082806v-85.190249h-142.082806v85.190249z m0-142.082806h142.082806v-85.190249h-142.082806v85.190249z m0 284.198632h142.082806v-85.223268h-142.082806v85.190249zM597.718561-128L0.990584-14.346962V781.323359L597.652522 895.009416zM374.110667 184.628402L305.661292 314.196827c-2.608539 4.853863-5.283116 13.769122-8.122791 26.646717h-0.990584a209.31046 209.31046 0 0 0-9.278473-27.769379l-68.845608-128.445763H111.60583l126.860828 198.876306L122.502257 582.314975H231.466529l56.892558-119.20031c4.39159-9.344512 8.452986-20.637173 11.95305-33.481749h1.155682c2.245324 7.660519 6.30672 19.283374 12.514381 34.637431l63.199278 118.044628h99.883916l-119.299368-197.159293 122.700374-200.5603h-106.322714z"  horiz-adv-x="1056" />

    
    <glyph glyph-name="weizhigeshi" unicode="&#58938;" d="M928.596273-49.556936H258.650104V797.416149h460.057971l209.888198-181.267081zM961.457557-76.057971H226.848861V822.857143h524.720497l209.888199-195.047619v-703.867495z m-680.546584 54.062112h626.484472V604.488613L730.36853 769.855072H280.910973v-791.850931zM947.677019 580.10766H696.447205v233.20911h54.062112v-180.207039h197.167702zM59.362319 616.149068h474.898551V365.979296H59.362319zM279.850932 456.082816c-2.120083 4.240166-2.120083 9.540373-2.120083 14.840579 0 12.720497 5.300207 23.320911 16.960662 32.861284 7.42029 6.360248 11.660455 11.660455 14.84058 14.84058s4.240166 8.480331 4.240166 12.720497c0 5.300207-2.120083 9.540373-5.300207 12.720497-3.180124 3.180124-8.480331 5.300207-13.780539 5.300207-13.780538 0-25.440994-5.300207-37.101449-15.900621V567.387164c11.660455 7.42029 25.440994 10.600414 41.341615 10.600414s27.561077-3.180124 37.101449-10.600414c9.540373-7.42029 13.780538-18.020704 13.780539-30.741201 0-8.480331-2.120083-14.84058-5.300207-22.26087s-10.600414-13.780538-19.080746-21.200828c-7.42029-6.360248-12.720497-11.660455-13.780538-14.84058-2.120083-3.180124-3.180124-7.42029-3.180124-11.660455 0-4.240166 1.060041-7.42029 3.180124-11.660456h-31.801242z m-4.240166-31.801243c0 5.300207 2.120083 9.540373 6.360248 13.780539 4.240166 3.180124 8.480331 5.300207 14.84058 5.300207 5.300207 0 10.600414-2.120083 14.84058-5.300207 4.240166-3.180124 6.360248-8.480331 6.360248-13.780539s-2.120083-9.540373-5.300207-13.780538c-4.240166-3.180124-8.480331-5.300207-13.780538-5.300207-6.360248 0-11.660455 2.120083-15.900621 5.300207-5.300207 4.240166-7.42029 8.480331-7.42029 13.780538zM652.985507 151.850932c-3.180124 9.540373-5.300207 18.020704-5.300207 28.621118 0 23.320911 11.660455 45.581781 33.921325 63.602484 13.780538 11.660455 23.320911 21.200828 28.621118 29.68116 5.300207 7.42029 7.42029 15.900621 7.42029 25.440993 0 9.540373-3.180124 18.020704-10.600414 24.380953-7.42029 6.360248-15.900621 9.540373-27.561077 9.540372-26.501035 0-49.821946-9.540373-72.082815-29.681159v65.722567c23.320911 13.780538 49.821946 21.200828 80.563147 21.200828 30.741201 0 54.062112-7.42029 72.082815-21.200828 18.020704-13.780538 26.501035-33.921325 26.501036-60.42236 0-15.900621-3.180124-29.681159-10.600414-42.401656-6.360248-12.720497-19.080745-26.501035-38.161491-41.341615-14.84058-12.720497-24.380952-22.26087-27.561077-28.621118-3.180124-7.42029-5.300207-13.780538-5.300207-22.26087 0-7.42029 2.120083-14.84058 5.300207-22.260869h-57.242236z m-8.480331-62.542443c0 10.600414 4.240166 19.080745 11.660455 25.440993 7.42029 6.360248 16.960663 10.600414 28.621118 10.600414 10.600414 0 20.140787-3.180124 27.561077-10.600414 7.42029-6.360248 11.660455-15.900621 11.660456-25.440993 0-10.600414-3.180124-19.080745-10.600415-25.440994-7.42029-7.42029-15.900621-10.600414-26.501035-10.600414-12.720497 0-23.320911 3.180124-30.741201 10.600414-7.42029 7.42029-11.660455 15.900621-11.660455 25.440994z"  horiz-adv-x="1037" />

    
    <glyph glyph-name="word1" unicode="&#59037;" d="M535.130353 896h69.571765v-95.292235c124.536471-1.084235 248.922353 1.325176 373.157647-1.084236a40.448 40.448 0 0 0 44.935529-45.537882c2.048-234.676706 0-469.835294 1.204706-704.150588-1.204706-24.094118 2.288941-50.718118-11.324235-72.282353-16.986353-12.047059-38.881882-10.842353-58.729412-12.047059H604.702118V-128h-72.282353C354.996706-95.352471 177.513412-64.993882 0-33.189647V800.466824C178.326588 832.391529 356.773647 863.472941 535.130353 896z m52.464941-116.374588v-83.968h307.2v-47.947294h-307.2v-60.084706h307.2v-47.314824h-307.2v-60.687059h307.2v-46.742588h-307.2v-60.656941h307.2v-48.549647h-307.2v-59.482353h307.2v-48.549647h-307.2v-59.452235h307.2v-48.549647h-307.2v-96.015059h389.872941v768H587.595294z m-369.543529-212.028236c-17.016471-78.516706-34.032941-156.912941-50.386824-235.429647-10.661647 76.589176-24.485647 152.696471-36.713412 229.135059-20.660706-0.722824-40.96-1.566118-61.138823-2.56 18.462118-105.833412 41.562353-210.823529 61.138823-316.385882 22.889412-1.596235 45.628235-2.921412 68.367059-4.126118 15.781647 76.950588 33.731765 153.750588 47.585883 231.30353 14.064941-79.721412 32.286118-158.72 48.670117-238.351059 23.702588 1.204706 52.946824-9.216 72.643765 1.204706 29.214118 115.561412 52.585412 232.899765 79.36 349.184-23.612235-1.445647-47.224471-2.800941-70.806588-3.644236-14.305882-83.124706-29.123765-166.159059-42.465883-249.524705-17.106824 80.835765-33.129412 161.641412-48.880941 242.748235-22.497882-1.234824-44.875294-2.198588-67.403294-3.553883z"  horiz-adv-x="1024" />

    
    <glyph glyph-name="PDFicon" unicode="&#58983;" d="M170.666667 896h443.733333l273.066667-273.066667v-716.8a34.133333 34.133333 0 0 0-34.133334-34.133333H170.666667a34.133333 34.133333 0 0 0-34.133334 34.133333V861.866667a34.133333 34.133333 0 0 0 34.133334 34.133333zM614.4 896l273.066667-273.066667h-238.933334a34.133333 34.133333 0 0 0-34.133333 34.133334V896zM263.202133 391.816533h69.8368a139.946667 139.946667 0 0 0 28.8768-2.935466c9.3184-1.979733 17.476267-5.256533 24.507734-9.8304 7.031467-4.608 12.663467-10.752 16.861866-18.500267 4.1984-7.714133 6.314667-17.339733 6.314667-28.8768 0-13.1072-2.2528-23.688533-6.7584-31.709867-4.471467-8.021333-10.581333-14.199467-18.193067-18.602666a75.9808 75.9808 0 0 0-26.5216-8.977067 205.312 205.312 0 0 0-31.5392-2.321067h-26.4192v-85.981866H263.202133V391.850667z m59.255467-90.077866c5.290667 0 10.752 0.2048 16.452267 0.580266 5.666133 0.4096 10.888533 1.570133 15.701333 3.515734a27.8528 27.8528 0 0 1 11.707733 8.8064c3.072 3.925333 4.539733 9.386667 4.539734 16.452266 0 6.4512-1.365333 11.5712-4.096 15.36a27.204267 27.204267 0 0 1-10.581334 8.840534 44.544 44.544 0 0 1-14.336 3.959466 138.24 138.24 0 0 1-15.2576 0.853334h-26.4192v-58.368h22.289067z m112.913067 90.077866h81.885866c13.653333 0 26.862933-2.116267 39.594667-6.314666 12.6976-4.1984 23.9616-10.581333 33.723733-19.217067 9.796267-8.6016 17.6128-19.421867 23.483734-32.426667 5.870933-12.970667 8.8064-28.330667 8.8064-45.909333 0-17.783467-3.3792-33.211733-10.1376-46.216533a98.9184 98.9184 0 0 0-26.112-32.256c-10.6496-8.533333-22.493867-14.882133-35.498667-19.080534a124.0064 124.0064 0 0 0-38.263467-6.314666h-77.482666V391.850667z m64.546133-174.2848c11.537067 0 22.459733 1.3312 32.733867 3.959467 10.24 2.6624 19.217067 6.7584 26.8288 12.322133 7.645867 5.563733 13.653333 12.8 18.056533 21.7088 4.4032 8.874667 6.587733 19.729067 6.587733 32.426667 0 12.526933-1.9456 23.278933-5.870933 32.256a56.1152 56.1152 0 0 1-16.2816 21.845333 67.925333 67.925333 0 0 1-24.644267 12.356267 116.292267 116.292267 0 0 1-31.232 3.959467h-33.757866v-140.834134h27.579733z m151.074133 174.2848H785.066667v-33.450666h-97.109334v-54.5792h91.5456v-33.450667h-91.5456v-86.254933h-36.9664V391.850667z"  horiz-adv-x="1024" />

    
    <glyph glyph-name="jpg" unicode="&#58937;" d="M783.136713 895.979201H296.404182a115.515379 115.515379 0 0 1-117.627295-113.275469V646.389184h41.598336V782.703732a74.909004 74.909004 0 0 0 76.028959 73.341066h448.814048v-229.622815H983.320706v-640.99836a74.909004 74.909004 0 0 0-76.124955-73.341066H220.151232V-6.384705h-41.598336V-127.979841h728.706852A115.547378 115.547378 0 0 1 1024.919042-14.576377V662.964521L783.136713 895.979201z m3.615855-229.590817v169.593217l175.992961-169.593217h-175.992961z m-149.466021-174.969001h247.99008v-39.9984h-247.99008v39.9984z m0-136.538538h247.99008v-39.9984h-247.99008v39.9984z m0-136.538539h247.99008v-40.030398h-247.99008v40.062397zM-0.03196 644.533259v-575.976961h575.976961v575.976961h-575.976961z m337.554497-279.316828L368.625293 415.9984 512.939521 192.00736H64.95744l142.330307 223.99104 31.102756-50.781969 49.566017 80.700772 49.566017-80.700772zM96.95616 511.99456a31.99872 31.99872 0 1 0-31.99872-31.99872 31.99872 31.99872 0 0 0 31.99872 31.99872z"  horiz-adv-x="1024" />

    
    <glyph glyph-name="shujujiance1" unicode="&#59013;" d="M957.216 896C994.048 896 1024 864.384 1024 825.44v-658.784c0-39.04-29.952-70.656-66.752-70.656H66.752C29.76 96 0 127.616 0 166.656V825.44C0 864.384 29.76 896 66.752 896h890.464z m-220.864-672.512h128v384h-128v-384z m-192 0h128v480h-128v-480z m-384 0h128v128h-128v-128z m192 0h128v256h-128v-256zM672 32c-3.712 21.28-12.32 32-32 32h-256c-19.68 0-28.48-10.72-32-32v-96H160v-64h704v64h-192v96z"  horiz-adv-x="1024" />

    
    <glyph glyph-name="fenxipingjia" unicode="&#58989;" d="M729.031111 85.447111l72.106667-115.370667a35.555556 35.555556 0 1 0-60.302222-37.688888l-95.644445 153.059555h-266.382222l-95.630222-153.059555a35.555556 35.555556 0 1 0-60.302223 37.688888l72.078223 115.370667H49.777778a49.777778 49.777778 0 0 0 0 99.555556h47.303111V811.989333C97.080889 826.965333 109.240889 839.111111 124.202667 839.111111h775.594666c14.961778 0 27.121778-12.145778 27.121778-27.121778v-626.986666H974.222222a49.777778 49.777778 0 0 0 0-99.555556H729.031111z m-374.826667 401.777778a85.333333 85.333333 0 1 1 42.24-57.315556l71.381334 58.453334A99.100444 99.100444 0 0 1 526.222222 469.447111a99.114667 99.114667 0 0 1 59.648 19.84L682.666667 412.344889a56.888889 56.888889 0 1 1 44.231111 55.68l-102.968889 81.834667a99.555556 99.555556 0 1 1-195.128889-1.536l-74.595556-61.084445z"  horiz-adv-x="1024" />

    
    <glyph glyph-name="shenpi" unicode="&#59043;" d="M573.4 151c-19.2 33.4-30.3 72-30.3 113.2 0 125.9 102.1 228 228 228 17.1 0 33.7-2 49.8-5.6v276c0 70.8-57.4 128.2-128.2 128.2h-551C71 890.8 13.6 833.4 13.6 762.6v-759.8c0-70.8 57.4-128.2 128.2-128.2h249.1V-19.9c0 94.4 76.5 170.9 170.9 170.9h11.6zM204.6 713.8h425.2c23.6 0 42.7-19.1 42.7-42.7s-19.1-42.7-42.7-42.7H204.6c-23.6 0-42.7 19.1-42.7 42.7s19.1 42.7 42.7 42.7z m273.8-277.7H204.6c-23.6 0-42.7 19.1-42.7 42.7s19.1 42.7 42.7 42.7h273.8c23.6 0 42.7-19.1 42.7-42.7s-19.1-42.7-42.7-42.7zM989.6-68.1H521.7c-11.8 0-21.4-9.6-21.4-21.4s9.6-21.4 21.4-21.4h467.9c11.8 0 21.4 9.6 21.4 21.4s-9.6 21.4-21.4 21.4zM628 290.5c0-53.5 32.9-99.2 79.6-118.2v-74.7h-121c-47.2 0-85.4-38.3-85.4-85.4v-58.7h509v58.7c0 47.2-38.3 85.4-85.4 85.4h-121v74.7c46.7 19 79.6 64.7 79.6 118.2 0 70.5-57.2 127.7-127.7 127.7S628 361 628 290.5z"  horiz-adv-x="1024" />

    
    <glyph glyph-name="chengguoshenchayuguanli" unicode="&#59833;" d="M780.94045-127.99447c7.516076 0 16.895811 23.551736 28.077766 70.655208l-71.679197 62.463301-27.053777-11.693949c-113.601288-38.39957-244.589901-14.479198-335.72488 71.679197-125.807231 120.380092-125.807231 314.507838 0 434.887929 122.878624 117.328606 319.341063 119.376583 445.209733 9.359255V858.618479A38.030934 38.030934 0 0 1 780.94045 895.994061h-546.605078v-185.792479c0-20.766487-17.325886-37.375581-38.829645-37.375582H0.005837v-762.420901A38.256212 38.256212 0 0 1 38.917401-127.99447h742.023049zM97.202828 570.078991c0 5.119943 4.095954 9.277336 10.239885 9.277336h156.608806c5.119943 0 10.239885-4.095954 10.239886-9.277336v-18.73899c0-5.119943-4.095954-9.359255-10.239886-9.359255H107.524633c-5.119943 0-10.239885 4.177873-10.239886 9.359255v18.73899h-0.081919z m0-112.126744c0 5.119943 4.095954 9.359255 10.239885 9.359255H204.803543c5.119943 0 10.239885-4.177873 10.239885-9.359255v-18.73899c0-5.119943-4.095954-9.277336-10.239885-9.277336H107.524633c-5.119943 0-10.239885 4.095954-10.239886 9.277336v18.73899h-0.081919z m0-112.126744c0 5.181382 4.095954 9.359255 10.239885 9.359255H204.803543c5.119943 0 10.239885-4.177873 10.239885-9.359255v-18.657071c0-5.201862-4.095954-9.359255-10.239885-9.359255H107.524633c-5.119943 0-10.239885 4.157393-10.239886 9.359255v18.636591h-0.081919z m0-111.041317c0 5.119943 4.095954 9.297816 10.239885 9.297816h137.153024c5.119943 0 10.239885-4.095954 10.239886-9.297816v-18.71851c0-5.119943-4.095954-9.359255-10.239886-9.359255H107.442713c-5.119943 0-10.239885 4.157393-10.239885 9.359255v18.71851zM195.505727 746.491735V895.994061L0.005837 709.116154h156.526887A38.030934 38.030934 0 0 1 195.505727 746.491735z m586.376793-293.147436c-99.326888 94.411743-258.92574 94.411743-358.252628 0a233.01883 233.01883 0 0 1 0-341.582095c81.919083-77.823128 205.760255-91.339777 301.933258-40.447547l186.283994-177.498172c18.288435-17.612603 47.205871-17.612603 65.473827 0l32.767633 31.149731a41.98353 41.98353 0 0 1 0 62.258503l-186.304474 177.498172c54.271392 91.421696 39.935553 209.712851-41.90161 288.621408z m-32.767633-311.435872c-80.895094-76.79914-211.883707-76.79914-292.717362 0a191.0353 191.0353 0 0 0 0 279.241672c80.833655 76.79914 211.822268 76.79914 292.717362 0 80.813175-76.79914 80.813175-201.418544 0-279.241672z"  horiz-adv-x="1024" />

    
    <glyph glyph-name="jianceyujing" unicode="&#59129;" d="M1020.031008 445.995659c-65.536 108.917085-184.637519 181.748093-320.702512 181.748093-206.744806 0-374.339473-168.150326-374.339473-375.569861 0-75.871256 22.424806-146.487566 60.987535-205.538232H3.968992V896h1016.062016v-450.004341z m-381.023256-568.24062H281.79845v44.055814h229.931659A377.332093 377.332093 0 0 1 639.007752-122.244961zM698.542636 570.542636c176.818605 0 321.488372-144.669767 321.488372-321.488372S875.36124-72.434109 698.542636-72.434109 377.054264 72.235659 377.054264 249.054264 521.724031 570.542636 698.542636 570.542636z m-34.514357-563.5969L861.271318 289.934884H702.511628L740.994977 499.100775 543.751938 216.111628h158.75969L664.028279 6.945736z"  horiz-adv-x="1024" />

    
    <glyph glyph-name="yizhangtu" unicode="&#58934;" d="M502.965 461.623c-81.318 6.024-162.636 24.074-240.941 51.14l-54.212-246.664 171.67 3.012 123.483 192.512z m409.6 60.175c-105.412-39.113-216.847-63.187-334.306-63.187h-33.13l-120.47-189.52 165.647 3.012 198.776-225.601c96.377-21.083 186.73-42.125 259.012-42.125h12.047l105.412 210.563 126.494 12.047-21.082 147.395c-126.494 24.095-249.977 75.214-358.4 147.416z m171.67-595.646C831.247-91.9 451.765 112.68 72.282 31.442L237.93 774.486c21.083 12.047 42.165 21.063 63.247 27.086 15.06 3.012 168.66 39.093 204.8 36.081 129.506-9.015 234.918-24.054 234.918-24.054 186.73-30.077 376.47-78.205 560.188-51.14L1382.4 181.87l-177.694-15.058s-84.33-171.47-120.47-240.66z m265.036 899.473l-54.212-9.035c-33.13-6.004-69.27-9.015-108.424-9.015-108.423 0-222.87 21.082-334.306 42.124-30.117 6.024-57.223 9.035-87.34 15.039-108.424 18.05-210.824 36.08-292.142 30.057C346.353 882.768 280.094 855.703 274.071 849.68c-21.083-9.035-39.153-15.059-60.236-27.086l-21.082-12.027L0-40.759l84.33 18.03c57.223 12.047 117.458 18.07 180.705 18.07 156.612 0 313.224-36.12 451.765-69.21C837.27-100.914 951.718-128 1051.106-128c21.082 0 39.153 0 57.223 3.012l15.06 3.012 322.258 246.683-96.376 700.938zM195.765 214.94l-18.07-87.221c27.105 3.012 57.223 3.012 87.34 3.012 153.6 0 304.189-30.098 439.718-63.187L569.223 217.95l-373.458-3.011z m1072.188 198.575l-36.141 261.703h-57.224c-66.259-57.164-138.54-102.28-216.847-138.381 93.365-57.163 198.777-99.268 310.212-123.342zM861.365 557.88a884.796 884.796 0 0 0-183.718 183.517s-39.153 12.047-141.553 15.059c-78.306 3.012-147.576-15.059-177.694-21.082-3.012 0-3.012 0-6.024-3.012h-9.035c-12.047-3.012-21.082-9.015-33.13-12.027l-33.129-153.4c96.377-36.12 198.777-54.171 304.189-54.171 96.376 0 189.74 15.059 280.094 45.136z m42.164 15.059c66.26 27.066 129.506 63.167 189.742 105.291-90.353 6.024-180.706 24.054-265.036 39.093-33.13 6.024-63.247 12.047-93.364 15.059 48.188-60.175 105.411-111.315 168.658-159.443z"  horiz-adv-x="1445" />

    
    <glyph glyph-name="shengtaixiufu" unicode="&#59149;" d="M894.655904 723.504446S858.510245 771.038732 857.971196 837.44952c0.22542 17.092741 12.741149 34.891146 15.514799 38.517474-0.313628-0.401836-0.627257-0.803672-1.460331-1.803363-8.683583-10.506547-75.702026-28.001125-97.469789-33.411213-6.586194-1.626947-12.035485-2.940265-16.563494-4.067366 4.498606 1.097699-58.579882-22.414621-113.690251-63.813555-28.157939-21.140506-62.813864-48.90641-85.551915-73.065588a623.757645 623.757645 0 0 0 342.638896-339.453609 219.265371 219.265371 0 0 0 16.29887-44.270592c0.77427-2.371814 1.646548-4.704424 2.401217-7.086039 26.374178 40.987296 47.583291 92.93198 50.278533 160.166043 0.009801 0.009801 4.331991 113.00419-75.711827 254.342734zM382.80475 451.725939c-14.701326 8.379756-3.489115 28.981213 12.045287 22.012785C664.246928 352.972235 733.764597 247.622535 809.015782 173.674867a26.766214 26.766214 0 0 1 42.241809 6.595995c39.47796 74.359305 60.765479 192.910795-141.250337 377.667255C516.273185 735.108692 267.311136 756.337407 86.259411 691.847591c-25.84493-9.20303-53.101188-33.126987-33.82285-52.248511C126.648853 566.043448 127.805357 407.347538 204.25225 278.720739c158.392082-266.27041 354.791992-285.79377 533.785532-218.471499A29.324244 29.324244 0 0 0 772.870123 49.203644c24.100373-36.175062 46.554198-62.049395 58.746497-122.775671 16.553693-81.533552 119.32576-63.019683 82.454835 0C800.979057 126.01317 704.165928 268.841449 382.80475 451.725939z"  horiz-adv-x="1024" />

    
    <glyph glyph-name="cunzhuang" unicode="&#59193;" d="M130.6 167v-96.7h828.8l-17.8 77.7-157.5 0.4V320.2l113.7 0.4-35.3 61.9 35.3 0.1-40.2 73 30.5 0.1-119.2 225.8-120.6-226.6 31 0.1-40.6-73.3 35.7 0.1-35.7-62 104 0.3v-171.9l-127.6-0.5-88.4 3.5-1.2 272.1H603L351.4 691.1c-4.8 5.2-11.6 8.2-18.7 8.2s-13.9-3-18.7-8.2L62.3 423.2H131V167h-0.4z m211.5 214.5h86.3v-91.9h-86.3v91.9z m0-122.5h86.3v-91.9h-86.3V259zM227 381.5h86.3v-91.9H227v91.9z m0-122.5h86.3v-91.9H227V259z m0 0"  horiz-adv-x="1024" />

    
    <glyph glyph-name="meikuang" unicode="&#58988;" d="M1018.12701 313.1L836.42701 597.9c-14.6 22.9-48 22.9-62.6 0L644.12701 394.5 383.12701 790c-14.9 22.6-48.1 22.6-63 0L6.32701 314.5c-16.6-25 1.4-58.5 31.5-58.5h949c29.3 0 47.1 32.4 31.3 57.1zM974.02701 105H50.02701c-27.6 0-50 22.4-50 50s22.4 50 50 50h924c27.6 0 50-22.4 50-50 0-27.7-22.4-50-50-50zM789.62701-43.9H234.42701c-27.6 0-50 22.4-50 50s22.4 50 50 50h555.3c27.6 0 50-22.4 50-50-0.1-27.6-22.5-50-50.1-50z"  horiz-adv-x="1024" />

    
    <glyph glyph-name="renshu" unicode="&#58935;" d="M201.5 616.473c0-116.638 94.553-211.184 211.182-211.184 116.636 0 211.188 94.546 211.188 211.184 0 116.635-94.552 211.187-211.188 211.187-116.63 0-211.181-94.552-211.181-211.187z m0 0M513.858 393.33H347.869C155.7 393.33 0 237.632 0 45.458c0-57.993 47.116-105.115 105.116-105.115H736.76c45.562 0 82.512 36.956 82.512 82.52v65.052c-0.002 168.614-136.805 305.417-305.414 305.417z m137.041 224.818c0-55.847-20.33-106.908-54.052-146.252-3.947-4.542-3.707-11.364 0.479-15.784 29.178-30.257 70.19-49.029 115.513-49.029 89.211 0 161.44 72.585 160.842 161.917-0.6 87.294-71.633 158.69-158.927 159.646-24.635 0.24-47.956-4.905-68.884-14.592-7.41-3.468-11.117-11.959-8.369-19.614 8.733-23.677 13.398-49.386 13.398-76.292z m0 0M741.78 380.893h-46.398c-9.447 0-12.915-12.437-4.782-17.34 92.438-54.889 154.384-155.701 154.384-271.098v-67.086a84.634 84.634 0 0 0-15.308-48.675c-4.303-6.095 0-14.586 7.532-14.586h110.5c42.094 0 76.294 34.2 76.294 76.294v60.031c-0.002 156.058-126.4 282.46-282.223 282.46z m0 0"  horiz-adv-x="1024" />

    
    <glyph glyph-name="fangwu-" unicode="&#59351;" d="M960.4 301L511.8 649.2 63.2 301V443l448.6 348.2L960.4 443v-142z m-112.2 12.6v-336.4H623.9V201.5H399.6v-224.3H175.4V313.6l336.4 252.3 336.4-252.3z m0 0"  horiz-adv-x="1024" />

    
    <glyph glyph-name="shuzhizhili" unicode="&#58981;" d="M288.768 384c0-123.392 99.84-223.232 223.232-223.232S735.232 260.608 735.232 384 635.392 607.232 512 607.232 288.768 507.392 288.768 384z m-88.064 101.888L86.016 523.264c44.544 135.68 151.04 242.176 286.72 286.72l37.376-114.688a325.99 325.99 0 0 1-209.408-209.408z m622.592 0c-32.768 99.328-110.592 176.64-209.408 209.408l37.376 114.688c135.68-44.544 242.176-151.04 286.72-286.72l-114.688-37.376zM372.224-42.496c-135.68 44.544-242.176 151.04-286.72 286.72L200.192 281.6C232.96 182.272 310.784 104.96 409.6 72.192l-37.376-114.688z m279.552 0L614.4 72.192C713.728 104.96 791.04 182.784 823.808 281.6l114.688-37.376c-45.056-135.68-151.04-241.664-286.72-286.72z m0 0"  horiz-adv-x="1024" />

    
    <glyph glyph-name="tudizongmianji" unicode="&#58950;" d="M473.6 409.6H76.8L147.2 768h326.4zM544 409.6h403.2L870.4 768H544zM473.6-38.4H0l76.8 390.4h396.8zM544-38.4h467.2l-70.4 390.4H544z"  horiz-adv-x="1024" />

    
    <glyph glyph-name="xiangmu" unicode="&#58999;" d="M806.4 409.6c17.066667 8.533333 34.133333 0 42.666667-12.8 8.533333-17.066667 0-34.133333-12.8-42.666667l-311.466667-157.866666c-8.533333-4.266667-17.066667-4.266667-25.6 0l-311.466667 157.866666c-12.8 8.533333-21.333333 25.6-12.8 42.666667s25.6 21.333333 42.666667 12.8l294.4-149.333333 294.4 149.333333zM512 106.666667l294.4 149.333333c17.066667 8.533333 34.133333 0 42.666667-12.8 8.533333-17.066667 0-34.133333-12.8-42.666667l-311.466667-153.6c-8.533333-4.266667-17.066667-4.266667-29.866667 0l-311.466666 153.6c-12.8 8.533333-21.333333 25.6-12.8 42.666667s25.6 21.333333 42.666666 12.8l298.666667-149.333333z m0 558.933333l-251.733333-128 251.733333-128 251.733333 128-251.733333 128z m-12.8 55.466667c8.533333 4.266667 17.066667 4.266667 29.866667 0l311.466666-153.6c4.266667-4.266667 12.8-17.066667 12.8-29.866667 0-12.8-8.533333-21.333333-17.066666-29.866667l-311.466667-153.6c-8.533333-4.266667-17.066667-4.266667-29.866667 0L187.733333 512c-8.533333 4.266667-17.066667 17.066667-17.066666 25.6 0 12.8 8.533333 21.333333 17.066666 29.866667l311.466667 153.6z"  horiz-adv-x="1024" />

    
    <glyph glyph-name="setting" unicode="&#59065;" d="M375.7 65.20000000000005V561.4l240.7 138.8v-357.1c23.4 19 50.6 33.5 80.3 42.1V686.5l152.5-121.3V377c30.5-12.6 57.8-31.6 80-55.4V584.5c0 12.2-5.6 23.7-15.1 31.3L681.5 800.7c-6.6 5.2-14.5 8.1-22.5 8.6h-0.1c-0.6 0-1.2 0-1.8 0.1H655c-6.5-0.2-12.9-2-18.7-5.3L338.9 632.5 127.5 800.7c-12 9.6-28.4 11.4-42.3 4.7-13.8-6.7-22.6-20.7-22.6-36v-588.6c0-12.2 5.6-23.7 15.1-31.3l232.5-184.9c7.2-5.7 16-8.7 24.9-8.7h0.6c6.9 0 13.8 1.8 20 5.3l194.2 112c-10.9 25.2-17.4 52.7-18.5 81.7l-155.7-89.7z m-80.6 13.6L142.6 200.10000000000002V686.5l152.5-121.3v-486.4zM813 203.29999999999995c-5.5 5.5-12 9.8-19.4 13-7.4 3.2-15.4 4.8-23.7 4.8-8.4 0-16.3-1.6-23.6-4.8-7.3-3.2-13.8-7.5-19.2-13-5.5-5.5-9.8-11.9-13-19.3-3.2-7.3-4.8-15.2-4.8-23.6 0-8.4 1.6-16.2 4.8-23.6 3.2-7.3 7.5-13.8 13-19.4 5.5-5.6 11.9-9.9 19.3-13.1 7.4-3.2 15.2-4.8 23.6-4.8s16.3 1.6 23.7 4.8c7.5 3.2 13.9 7.5 19.4 13.1 5.5 5.6 9.8 12.1 13 19.4 3.2 7.4 4.7 15.2 4.7 23.6 0 8.4-1.6 16.2-4.7 23.6-3.3 7.4-7.6 13.8-13.1 19.3zM768.9 349.29999999999995c-104.1 0-188.5-84.4-188.5-188.5s84.4-188.5 188.5-188.5 188.5 84.4 188.5 188.5S873 349.29999999999995 768.9 349.29999999999995z m109.7-205.8c3.5-4.7 8-8.1 13.5-10.2 1.3-0.7 2.4-1.5 3.4-2.2 2-1.7 3.5-3.8 4.2-6.4 0.4-2.2 0.3-4.9-0.3-8.1-0.5-3.2-1.5-6.4-2.8-9.6-1.3-3.3-2.9-6.2-4.7-8.8-1.9-2.6-3.9-4.5-6.1-5.6-2.2-1.1-4.2-1.7-5.9-1.7-1.7 0-3.5 0.4-5.6 1.1-1.9 0.6-4.2 1.1-7 1.5-2.8 0.5-5.6 0.5-8.5 0.3-2.9-0.3-5.8-0.9-8.6-1.8-2.9-0.9-5.4-2.5-7.4-4.8-4.5-4.7-7.1-10-7.8-15.9-0.7-6 0.1-11.6 2.5-17 1.9-3.7 1.6-7.4-0.8-11.2-1.1-1.5-2.9-3-5.3-4.6-2.4-1.6-5.1-3-8-4.3-2.9-1.3-5.9-2.3-9.1-3.1-3.2-0.7-5.9-1.1-8.4-1.1-1.7 0-3.2 0.7-4.7 1.9-1.5 1.3-2.5 2.7-3.1 4.2h-0.3c-2 5.8-5.5 10.7-10.5 14.9-4.9 4.2-10.6 6.3-17.2 6.3-6.3 0-12.1-2.1-17.2-6.3-5.1-4.2-8.7-9.1-10.8-14.7-0.9-2.2-2.3-3.9-4.2-4.9-1.8-1-3.9-1.5-6.1-1.5-2.6 0-5.5 0.5-8.8 1.4-3.3 0.9-6.5 2.1-9.8 3.5-3.3 1.4-6.2 3-8.8 4.9-2.6 1.9-4.6 3.7-5.9 5.6-0.9 1.3-1.4 2.9-1.5 4.6-0.1 1.8 0.6 4.2 2.1 7.4 2 4.3 2.8 9.2 2.4 14.7-0.5 5.5-2.8 10.6-7.1 15.2-2.6 2.8-5.8 4.6-9.5 5.4-3.7 0.9-7.3 1.2-10.6 1-3.9-0.2-7.9-0.9-12-2.2-2.6-0.7-5.2-0.5-7.8 0.6-2 0.7-3.9 2.5-5.7 5.1-1.8 2.7-3.3 5.7-4.8 8.9-1.4 3.3-2.5 6.6-3.2 10.1-0.7 3.4-0.9 6.3-0.6 8.5 0.6 4.1 2.4 6.7 5.6 7.8 5.6 2.2 10.6 5.9 15.1 11s6.7 10.8 6.7 17.2c0 6.5-2.2 12.2-6.7 17-4.5 4.8-9.5 8.4-15.1 10.6-1.6 0.5-3 1.9-4.1 4-1.1 2.1-1.7 4.3-1.7 6.6 0 2.4 0.4 5.1 1.1 8.1 0.7 3 1.7 5.9 2.9 8.7 1.2 2.8 2.6 5.3 4.2 7.7 1.6 2.3 3.3 4 5.2 5.2 1.5 0.9 2.9 1.3 4.3 1.1 1.4-0.2 2.9-0.6 4.6-1.1 5.6-2.2 11.4-2.9 17.5-2.1 6 0.8 11.4 3.5 16.1 7.9 2.2 2.2 3.8 5 4.9 8.2 1 3.3 1.7 6.5 1.9 9.6 0.3 3.2 0.3 6 0 8.6-0.3 2.6-0.5 4.5-0.7 5.6-0.4 1.1-0.7 2.4-1 3.9-0.3 1.5-0.1 2.8 0.4 3.9 1.1 2.6 3.1 4.9 6 6.8 2.9 1.9 6 3.6 9.4 4.9 3.4 1.3 6.6 2.3 9.8 2.9 3.2 0.7 5.7 1 7.5 1 2.4 0 4.3-0.8 5.7-2.4 1.4-1.6 2.4-3.2 2.9-4.9 2-5 5.4-9.4 10.1-13.3 4.7-3.8 10.2-5.7 16.5-5.7 6.5 0 12.3 1.8 17.3 5.5 5 3.6 8.6 8.2 10.6 13.8 0.7 1.5 1.9 3 3.5 4.6 1.6 1.6 3.2 2.4 4.9 2.4 2.6 0 5.4-0.4 8.5-1.1 3.1-0.7 6.1-1.8 9.1-3.1s5.8-3 8.3-5c2.5-2 4.5-4.3 6-6.7 0.9-1.5 1.2-3.1 0.8-4.9-0.4-1.8-0.7-3-1.1-3.8-2.4-5.4-3.2-11.1-2.2-17 0.9-5.9 3.7-11.2 8.1-15.6 4.5-4.5 10-6.9 16.5-7.4s12.6 0.6 18.2 3.2c1.5 0.9 3.3 1.3 5.4 1.1 2.1-0.2 3.9-1 5.4-2.5 2.8-2.6 5.2-6.6 7.4-11.9s3.6-10.7 4.3-16.1c0.4-3.2-0.1-5.6-1.5-7.4-1.4-1.8-2.8-2.9-4.4-3.5-5.8-2-10.7-5.6-14.8-10.7-4.1-5.1-6.1-10.9-6.1-17.4 0-6.1 1.7-11.6 5.1-16.4z"  horiz-adv-x="1024" />

    
    <glyph glyph-name="system" unicode="&#58931;" d="M871.664 324.79200000000003l35.096 35.096-61.424 61.4-35.08-35.088c-21.936 17.544-48.256 26.312-78.952 30.696v48.256H643.584v-48.256c-26.328-4.384-52.64-17.544-78.96-30.696l-35.088 35.088-61.4-61.4 35.088-35.096c-13.16-21.936-26.32-48.24-30.696-78.952h-48.256v-87.728h48.256c4.384-26.312 17.544-52.624 30.696-78.936l-35.088-30.704 61.4-61.424 35.088 35.104c21.928-17.552 48.248-26.32 78.96-30.704v-48.256h87.72v43.856c26.312 4.392 52.632 17.544 78.952 30.712l35.08-35.096 61.424 61.4-35.096 35.112c13.168 21.92 26.32 48.232 30.704 78.936h48.24V245.832h-48.24c-4.384 30.712-17.536 57.016-30.704 78.96z m-184.216-254.4c-70.184 0-131.584 61.408-131.584 131.576 0 74.576 61.4 131.592 131.584 131.592 74.56 0 131.576-57.016 131.576-131.592 0-70.168-57.016-131.576-131.576-131.576zM424.28 737.08L380.416 824.808H73.384v-877.232h350.888v87.736H161.112V561.648h701.792V473.92h87.712V737.08H424.28z"  horiz-adv-x="1024" />

    
    <glyph glyph-name="mokuaipeizhi" unicode="&#58932;" d="M56.832731 894.976H738.743589a56.758857 56.758857 0 0 0 56.832-56.758857v-681.179429a56.758857 56.758857 0 0 0-56.832-56.758857H56.832731A56.758857 56.758857 0 0 0 0.000731 157.037714V838.217143A56.758857 56.758857 0 0 0 56.832731 894.976z m56.832-681.179429h568.32V781.458286h-568.32z m0 567.661715M795.648731 384.292571h170.496a56.832 56.832 0 0 0 56.832-56.758857v-397.312a56.832 56.832 0 0 0-56.832-56.758857H568.320731a56.832 56.832 0 0 0-56.832 56.758857v170.276572h113.664v-113.517715h284.16v283.794286h-113.664z m0 0"  horiz-adv-x="1024" />

    
    <glyph glyph-name="tasklist_icon_one-discard_fuzhi" unicode="&#58933;" d="M500.629309 222.8806v7.541369c0 15.653821 12.640333 28.299253 28.289055 28.299253h123.573404c12.06415 0 23.011627 7.541368 26.5911 19.049731 8.673339 26.040412 35.279735 45.095242 66.9647 45.095242 31.129178 0 57.735575-19.049731 66.979998-45.095242 3.961895-11.513462 14.338288-19.049731 26.596199-19.049731h123.563206a28.26356 28.26356 0 0 0 28.304352-28.299253v-7.541369a28.26356 28.26356 0 0 0-28.304352-28.299252h-434.268607a28.253362 28.253362 0 0 0-28.289055 28.299252z m380.872251-350.880141h-270.138039a40.17984 40.17984 0 0 0-40.3787 40.363403v209.598033a40.174741 40.174741 0 0 0 40.3787 40.358304h270.138039a40.169642 40.169642 0 0 0 40.368502-40.358304v-209.598033c0.188662-22.629204-18.300184-40.363403-40.368502-40.363403z m-183.557622 257.875029h-43.947975c-6.980482 0-13.201219-5.848512-13.201219-13.201219v-199.782527c0-6.975383 5.843413-13.206318 13.201219-13.206318h43.947975c6.985581 0 13.211417 5.848512 13.211417 13.206318V116.674269c0.188662 7.546467-5.66495 13.201219-13.211417 13.201219z m140.920081 0h-43.947975c-6.975383 0-13.206318-5.848512-13.206318-13.201219v-199.782527c0-6.975383 5.843413-13.206318 13.206318-13.206318h43.947975c6.985581 0 13.216516 5.848512 13.216516 13.206318V116.674269c-0.576183 7.546467-6.230935 13.201219-13.216516 13.201219zM300.846782 560.437148h288.137384c16.117827 0 29.523004 14.593236 29.523004 32.750649s-12.890182 32.74555-29.523004 32.745549h-288.137384c-16.122926 0-29.533202-14.593236-29.533202-32.745549 0.005099-18.157413 13.415376-32.750649 29.533202-32.750649z m-29.528103-119.973535c0-18.162511 12.90038-32.750649 29.533202-32.750649h288.642181c16.128025 0 29.528103 14.588137 29.528103 32.750649 0 18.157413-13.063547 32.74555-29.528103 32.745549H300.851881c-16.122926 0.514995-29.533202-13.909975-29.533202-32.745549zM383.475501 42.142706h-266.176143V816.343977h712.646572v-380.092109c0-21.46664 18.850872-39.654647 42.275514-39.654647 23.450138 0 42.29591 17.53024 42.295911 39.654647v407.478647c0 28.916228-24.760572 51.698401-55.650099 51.698401H87.949718c-30.889527 0-55.644999-23.43994-55.644999-51.698401v-828.540936c0-28.90603 24.750374-51.693302 55.644999-51.693302h295.525783c23.445039 0.652667 41.627946 17.520042 41.627946 39.644449 0 22.134605-18.182907 38.328916-41.627946 39.00198z"  horiz-adv-x="1024" />

    
    <glyph glyph-name="xiangmushenbao" unicode="&#58912;" d="M789.312 149.76v-110.933a34.133 34.133 0 0 0-9.814-23.894 32.853 32.853 0 0 0-46.933 0 34.133 34.133 0 0 0-9.813 23.894v116.48l-36.694-37.974a32 32 0 0 0-23.04-9.813 32.427 32.427 0 0 0-29.866 20.907 34.56 34.56 0 0 0 6.826 36.693L727.445 256a36.267 36.267 0 0 0 49.493 0l88.32-91.733a34.56 34.56 0 0 0 6.827-36.694 32.427 32.427 0 0 0-29.867-20.906 32 32 0 0 0-23.04 9.813l-29.866 33.28zM468.458-102.4h-348.16A101.12 101.12 0 0 0 21.312 0V793.6A101.12 101.12 0 0 0 120.298 896h696.32a101.12 101.12 0 0 0 100.694-102.4v-332.8a33.28 33.28 0 1 0-66.134 0V793.6a33.707 33.707 0 0 1-32.853 34.133H120.298a33.707 33.707 0 0 1-33.28-34.133V0a33.707 33.707 0 0 1 33.28-34.133h348.16a34.133 34.133 0 0 0 0-68.267z m192.854 720.213H218.005a34.133 34.133 0 0 0 0 68.267h443.307a34.133 34.133 0 0 0 0-68.267z m-200.107-188.16h-243.2a32.853 32.853 0 0 0-28.587 17.067 34.987 34.987 0 0 0 0 34.133 32.853 32.853 0 0 0 28.587 17.067h244.053a32.853 32.853 0 0 0 28.587-17.067 34.987 34.987 0 0 0 0-34.133 32.853 32.853 0 0 0-28.587-17.067z m-69.547-176.64H218.005a34.133 34.133 0 0 0 0 68.267h173.653a34.133 34.133 0 0 0 0-68.267zM750.058-128a256 256 0 0 0-252.586 261.12 256 256 0 0 0 252.586 261.12 256 256 0 0 0 252.587-261.12A256 256 0 0 0 750.058-128z m0 453.547a186.453 186.453 0 0 1-170.666-119.04 197.547 197.547 0 0 1 39.253-209.92 182.187 182.187 0 0 1 203.52-42.667 192.853 192.853 0 0 1 115.2 178.347A189.867 189.867 0 0 1 750.912 325.12z"  horiz-adv-x="1024" />

    
    <glyph glyph-name="zhuantijiance" unicode="&#58930;" d="M271.985778 668.444444a8.931556 8.931556 0 0 1-8.874667-8.874666v-53.361778c0-4.892444 3.982222-8.874667 8.874667-8.874667h426.666666c4.892444 0 8.874667 3.982222 8.874667 8.874667v53.361778A8.931556 8.931556 0 0 1 698.652444 668.444444h-426.666666z m213.333333-222.208V499.484444a8.931556 8.931556 0 0 1-8.874667 8.931556H271.985778a8.931556 8.931556 0 0 1-8.874667-8.931556v-53.304888c0-4.892444 3.982222-8.931556 8.874667-8.931556h204.458666c4.892444 0 8.874667 3.982222 8.874667 8.931556z m-53.304889-440.035555H174.193778V788.48H796.444444v-382.179556c0-4.892444 3.982222-8.931556 8.874667-8.931555h62.236445c4.892444 0 8.874667 3.982222 8.874666 8.931555v426.666667a35.498667 35.498667 0 0 1-35.555555 35.555556h-711.111111a35.498667 35.498667 0 0 1-35.555556-35.555556v-871.139555c0-19.683556 15.928889-35.555556 35.555556-35.555556h302.250666c4.892444 0 8.874667 3.982222 8.874667 8.874667v62.236444a8.931556 8.931556 0 0 1-8.874667 8.874667zM905.671111 206.620444h-69.859555a182.897778 182.897778 0 0 1-159.857778 159.857778V436.337778a4.551111 4.551111 0 0 1-4.551111 4.551111h-34.304a4.551111 4.551111 0 0 1-4.551111-4.551111v-69.859556a182.897778 182.897778 0 0 1-159.914667-159.857778H402.773333a4.551111 4.551111 0 0 1-4.551111-4.551111v-34.304c0-2.56 2.048-4.551111 4.551111-4.551111h69.859556a182.897778 182.897778 0 0 1 159.857778-159.914666v-69.859556c0-2.503111 2.048-4.551111 4.551111-4.551111h34.304a4.551111 4.551111 0 0 1 4.551111 4.551111v69.859556a182.897778 182.897778 0 0 1 159.914667 159.857777h69.859555a4.551111 4.551111 0 0 1 4.551111 4.551111v34.304a4.551111 4.551111 0 0 1-4.551111 4.551112z m-251.448889-161.166222a139.377778 139.377778 0 1 0-0.056889 278.755556 139.377778 139.377778 0 0 0 0.056889-278.755556z m0 207.985778c-18.318222 0-35.498667-7.054222-48.469333-20.081778-12.970667-12.970667-20.081778-30.151111-20.081778-48.469333 0-18.318222 7.111111-35.498667 20.081778-48.469333a68.323556 68.323556 0 0 1 96.938667 0 68.323556 68.323556 0 0 1 0 96.938666 67.754667 67.754667 0 0 1-48.469334 20.081778z"  horiz-adv-x="1024" />

    
    <glyph glyph-name="danwei" unicode="&#59042;" d="M390.4 864L25.6 691.2c-12.8-6.4-25.6-25.6-25.6-44.8v-748.8h460.8V819.2c0 38.4-38.4 57.6-70.4 44.8z m-38.4-576H108.8V371.2h243.2v-83.2z m0 166.4H108.8V537.6h243.2v-83.2z m646.4-51.2L633.6 569.6c-38.4 12.8-70.4-6.4-70.4-44.8v-627.2H1024V358.4c0 19.2-12.8 32-25.6 44.8z m-83.2-204.8h-243.2V275.2h243.2v-76.8z"  horiz-adv-x="1024" />

    
    <glyph glyph-name="danweiguanli1" unicode="&#59012;" d="M778.289 788.185V887.794H244.714v-99.61H84.766v-896.356H404.91v99.61h213.43v-99.61h320.02V788.185H778.29z m-320.02-647.397H351.552v99.61h106.715v-99.61z m0 199.218H351.552v99.61h106.715v-99.61z m0 199.219H351.552v99.609h106.715v-99.61z m213.305-398.437H564.859v99.61h106.715v-99.61z m0 199.218H564.859v99.61h106.715v-99.61z m0 199.219H564.859v99.609h106.715v-99.61z m0 0"  horiz-adv-x="1024" />

    
    <glyph glyph-name="renyuanguanli" unicode="&#58964;" d="M335.323766 425.67951c8.379685 3.174308 18.547199 6.081049 30.648487 13.670198 17.610718 11.067509 31.195781 33.907929-1.56891 61.880754-108.376455 156.161338-68.922609 259.916196-52.467291 299.005179a129.210129 129.210129 0 0 1-47.298399 8.513468h-5.631051c-103.718371 0-131.277685-94.329232-133.381729-147.234358-1.386479-124.746639 74.882037-174.307188 74.882038-174.307188s4.75538-6.555371 4.75538-25.540405c0-4.341869-2.821607-17.33099-7.71077-21.259348-42.567343-34.467386-184.657133-70.394223-194.593568-144.643831-5.254026-21.453941-2.116205-43.783553-1.082426-64.398308 23.253931-17.85396 97.734619-32.995772 97.734619-32.995772s6.190508 18.790441 12.46615 49.864601c9.279681 45.887596 71.379353 120.17369 223.235308 177.566631z m658.273553-129.356074c-10.204 74.127987-156.076203 110.042662-199.762459 144.461399-5.010784 3.928358-7.893202 16.893154-7.893202 21.222861 0 19.009359 4.864839 25.540406 4.864839 25.540406s78.20229 49.536225 76.742838 174.124757c-2.128367 52.844316-35.099815 147.051926-136.677657 147.051926h-5.776996c-21.891776 0-40.305193-4.159438-56.018623-10.945888 21.733669-72.765832 47.845693-206.269181-62.0267-295.745736-43.078151-64.264526 100.495415-101.954867 78.177966-91.933299 129.939855-58.37807 164.905886-103.195401 174.428809-149.50867 7.954012-38.663309 12.46615-62.306428 12.46615-62.306428s97.296784 14.862084 122.533137 33.725498c1.094589 20.675567 4.305383 42.883557-1.058102 64.313174zM569.857664 438.680792c-6.081049 4.864839-9.729678 21.028267-9.729679 26.403915 0 23.618794 5.91078 31.743076 5.91078 31.743076s96.080574 51.932158 94.171124 216.412371C657.595038 778.915483 617.1439 895.987838 492.518883 895.987838h-7.090503C355.026365 895.987838 320.352224 778.915483 317.725211 713.240154c-1.702694-154.835669 94.219773-216.412371 94.219773-216.412371s11.626966-13.268849 11.626965-36.887643c0-5.375647-9.231032-16.370184-15.360729-21.259348-53.513231-42.798423-246.270322-85.925222-258.748635-178.101762-9.729678-39.101145-66.891539-101.115682 123.36016-126.08447 52.418642-6.883747 123.615564-10.945888 219.756948-10.945888 441.253076 0 350.025179 85.487387 337.61984 135.607392-12.502637 92.164378-206.755665 136.726305-260.329707 179.524728z m0 0"  horiz-adv-x="1485" />

    
    </font>
</defs>
</svg>
